<svg viewBox="0 0 330 200" xmlns="http://www.w3.org/2000/svg"><g><g><g><g><g><line x1="40" y1="178" x2="35" y2="178" style="visibility: inherit;" fill="rgb(0, 0, 0)" stroke="rgb(204, 204, 204)" stroke-width="1px"></line><line x1="40" y1="152.57142857142858" x2="35" y2="152.57142857142858" style="visibility: inherit;" fill="rgb(0, 0, 0)" stroke="rgb(204, 204, 204)" stroke-width="1px"></line><line x1="40" y1="127.14285714285714" x2="35" y2="127.14285714285714" style="visibility: inherit;" fill="rgb(0, 0, 0)" stroke="rgb(204, 204, 204)" stroke-width="1px"></line><line x1="40" y1="101.71428571428571" x2="35" y2="101.71428571428571" style="visibility: inherit;" fill="rgb(0, 0, 0)" stroke="rgb(204, 204, 204)" stroke-width="1px"></line><line x1="40" y1="76.28571428571429" x2="35" y2="76.28571428571429" style="visibility: inherit;" fill="rgb(0, 0, 0)" stroke="rgb(204, 204, 204)" stroke-width="1px"></line><line x1="40" y1="50.857142857142854" x2="35" y2="50.857142857142854" style="visibility: inherit;" fill="rgb(0, 0, 0)" stroke="rgb(204, 204, 204)" stroke-width="1px"></line><line x1="40" y1="25.428571428571438" x2="35" y2="25.428571428571438" style="visibility: inherit;" fill="rgb(0, 0, 0)" stroke="rgb(204, 204, 204)" stroke-width="1px"></line><line x1="40" y1="0" x2="35" y2="0" style="visibility: inherit;" fill="rgb(0, 0, 0)" stroke="rgb(204, 204, 204)" stroke-width="1px"></line></g><g transform="translate(30, 0)"><text x="0" y="178" dx="0em" dy="0.3em" style="text-anchor: end; visibility: hidden; font-family: Roboto, sans-serif; font-size: 12px; font-weight: 200;" fill="rgb(50, 49, 63)" stroke="none" stroke-width="1px">4.5</text><text x="0" y="152.57142857142858" dx="0em" dy="0.3em" style="text-anchor: end; visibility: inherit; font-family: Roboto, sans-serif; font-size: 12px; font-weight: 200;" fill="rgb(50, 49, 63)" stroke="none" stroke-width="1px">5</text><text x="0" y="127.14285714285714" dx="0em" dy="0.3em" style="text-anchor: end; visibility: inherit; font-family: Roboto, sans-serif; font-size: 12px; font-weight: 200;" fill="rgb(50, 49, 63)" stroke="none" stroke-width="1px">5.5</text><text x="0" y="101.71428571428571" dx="0em" dy="0.3em" style="text-anchor: end; visibility: inherit; font-family: Roboto, sans-serif; font-size: 12px; font-weight: 200;" fill="rgb(50, 49, 63)" stroke="none" stroke-width="1px">6</text><text x="0" y="76.28571428571429" dx="0em" dy="0.3em" style="text-anchor: end; visibility: inherit; font-family: Roboto, sans-serif; font-size: 12px; font-weight: 200;" fill="rgb(50, 49, 63)" stroke="none" stroke-width="1px">6.5</text><text x="0" y="50.857142857142854" dx="0em" dy="0.3em" style="text-anchor: end; visibility: inherit; font-family: Roboto, sans-serif; font-size: 12px; font-weight: 200;" fill="rgb(50, 49, 63)" stroke="none" stroke-width="1px">7</text><text x="0" y="25.428571428571438" dx="0em" dy="0.3em" style="text-anchor: end; visibility: inherit; font-family: Roboto, sans-serif; font-size: 12px; font-weight: 200;" fill="rgb(50, 49, 63)" stroke="none" stroke-width="1px">7.5</text><text x="0" y="0" dx="0em" dy="0.3em" style="text-anchor: end; visibility: hidden; font-family: Roboto, sans-serif; font-size: 12px; font-weight: 200;" fill="rgb(50, 49, 63)" stroke="none" stroke-width="1px">8</text></g><line x1="40" y1="0" x2="40" y2="178" fill="rgb(0, 0, 0)" stroke="rgb(204, 204, 204)" stroke-width="1px"></line></g></g><g transform="translate(40, 0)" clip-path="url(#clip_0)"><clipPath id="clip_0"><rect width="290" height="178"></rect></clipPath><g><g><g><line x1="0" y1="0" x2="0" y2="178" fill="rgb(0, 0, 0)" stroke="rgb(60, 60, 60)" stroke-width="1px" opacity="0.25"></line><line x1="29" y1="0" x2="29" y2="178" fill="rgb(0, 0, 0)" stroke="rgb(60, 60, 60)" stroke-width="1px" opacity="0.25"></line><line x1="58" y1="0" x2="58" y2="178" fill="rgb(0, 0, 0)" stroke="rgb(60, 60, 60)" stroke-width="1px" opacity="0.25"></line><line x1="87" y1="0" x2="87" y2="178" fill="rgb(0, 0, 0)" stroke="rgb(60, 60, 60)" stroke-width="1px" opacity="0.25"></line><line x1="116" y1="0" x2="116" y2="178" fill="rgb(0, 0, 0)" stroke="rgb(60, 60, 60)" stroke-width="1px" opacity="0.25"></line><line x1="145" y1="0" x2="145" y2="178" fill="rgb(0, 0, 0)" stroke="rgb(60, 60, 60)" stroke-width="1px" opacity="0.25"></line><line x1="174" y1="0" x2="174" y2="178" fill="rgb(0, 0, 0)" stroke="rgb(60, 60, 60)" stroke-width="1px" opacity="0.25"></line><line x1="203" y1="0" x2="203" y2="178" fill="rgb(0, 0, 0)" stroke="rgb(60, 60, 60)" stroke-width="1px" opacity="0.25"></line><line x1="232" y1="0" x2="232" y2="178" fill="rgb(0, 0, 0)" stroke="rgb(60, 60, 60)" stroke-width="1px" opacity="0.25"></line><line x1="261" y1="0" x2="261" y2="178" fill="rgb(0, 0, 0)" stroke="rgb(60, 60, 60)" stroke-width="1px" opacity="0.25"></line><line x1="290" y1="0" x2="290" y2="178" fill="rgb(0, 0, 0)" stroke="rgb(60, 60, 60)" stroke-width="1px" opacity="0.25"></line></g><g><line x1="0" y1="178" x2="290" y2="178" fill="rgb(0, 0, 0)" stroke="rgb(60, 60, 60)" stroke-width="1px" opacity="0.25"></line><line x1="0" y1="152.57142857142858" x2="290" y2="152.57142857142858" fill="rgb(0, 0, 0)" stroke="rgb(60, 60, 60)" stroke-width="1px" opacity="0.25"></line><line x1="0" y1="127.14285714285714" x2="290" y2="127.14285714285714" fill="rgb(0, 0, 0)" stroke="rgb(60, 60, 60)" stroke-width="1px" opacity="0.25"></line><line x1="0" y1="101.71428571428571" x2="290" y2="101.71428571428571" fill="rgb(0, 0, 0)" stroke="rgb(60, 60, 60)" stroke-width="1px" opacity="0.25"></line><line x1="0" y1="76.28571428571429" x2="290" y2="76.28571428571429" fill="rgb(0, 0, 0)" stroke="rgb(60, 60, 60)" stroke-width="1px" opacity="0.25"></line><line x1="0" y1="50.857142857142854" x2="290" y2="50.857142857142854" fill="rgb(0, 0, 0)" stroke="rgb(60, 60, 60)" stroke-width="1px" opacity="0.25"></line><line x1="0" y1="25.428571428571438" x2="290" y2="25.428571428571438" fill="rgb(0, 0, 0)" stroke="rgb(60, 60, 60)" stroke-width="1px" opacity="0.25"></line><line x1="0" y1="0" x2="290" y2="0" fill="rgb(0, 0, 0)" stroke="rgb(60, 60, 60)" stroke-width="1px" opacity="0.25"></line></g></g></g><g><g><line x1="0" y1="406.85714285714283" x2="290" y2="406.85714285714283" fill="rgb(0, 0, 0)" stroke="rgb(153, 153, 153)" stroke-width="1.5px"></line></g></g><g><g><line x1="29" y1="0" x2="29" y2="178" fill="rgb(0, 0, 0)" stroke="rgb(153, 153, 153)" stroke-width="1.5px"></line></g></g><g><g><g><g><g><path stroke="rgb(255, 112, 67)" stroke-width="2px" d="M34.22,-3.1185304680649026L35.089999999999996,4.491351231835772L35.96,11.149716694639942L36.83,16.898247739550037L37.7,20.796650345014886L38.57,23.907436404043636L39.440000000000005,26.931418429600182L40.31,28.430377763687844L41.18,30.490003368889713L42.05,33.073672721608574L42.919999999999995,35.25527408197788L43.79,36.56975908329367L44.66,38.90882383153232L45.53,41.64670112873324L46.4,44.59844375701607L47.27,48.73803563042926L48.14,52.33727379005963L49.010000000000005,54.5729725759511L49.879999999999995,56.85118471710824L50.75,59.20084790767677L51.62,62.27241021564518L52.489999999999995,65.55732374160392L53.36,68.17991216930409L54.23,70.37296962452133L55.1,72.93407090640497L55.97,74.04374652404302L56.84,76.49532551955544L57.71,79.0932067883262L58.580000000000005,80.9857592015081L59.449999999999996,83.12053074419627L60.32,83.91696414565052L61.19,85.1976734381175L62.06,87.40429394271587L62.93,88.5917257997762L63.8,89.47005884878536L64.67,90.49867698141323L65.54,88.19408032452739L66.41,87.68178218766282L67.28,87.64353619229954L68.14999999999999,89.4565511632872L69.02,91.55140894342946L69.89,93.19558590131031L70.76,95.1460427508955L71.63,96.879609227744L72.5,96.89854768037561L73.37,98.45459480783536L74.24,99.65000319643735L75.11,100.6477497859933L75.98,101.04210119169963L76.85000000000001,101.21326458203299L77.72,102.74845380973237L78.59,103.51731253329359L79.46000000000001,104.37786014134903L80.33000000000001,104.55731911215317L81.2,104.68390024327545L82.07,104.90040525739803L82.94,105.86757393446813L83.80999999999999,105.0609362281823L84.67999999999999,105.3598106818731L85.55,106.56323715636859L86.42,107.36966564325611L87.28999999999999,108.05357058259149L88.16,108.85328078600863L89.03,110.140699572505L89.9,111.04419125403591L90.77,111.39626845376779L91.64,112.59897530129946L92.51,113.33076525105731L93.38,113.68569942424632L94.25,113.83620014596804L95.12,114.35862643349319L95.99000000000001,113.01022906967323L96.86,111.35842495226713L97.73,112.51656428358125L98.60000000000001,112.37816900838118L99.47000000000001,113.7798490761015L100.33999999999999,113.65495669559112L101.21,113.09573727506253L102.08,112.77606549910563L102.94999999999999,110.5780220247703L103.82,112.28933444637724L104.69,112.94832797146753L105.56,113.79145761138913L106.42999999999999,114.99593627337642L107.3,116.34049552780233L108.17,116.09200123949805L109.04,115.31697791306266L109.91,116.50887963636995L110.78,116.98284384714702L111.65,117.67952095759763L112.52000000000001,118.53098200989619L113.39,119.55389499207052L114.26,119.23635278154954L115.13000000000001,119.60904222051312L116,119.50089831117226L116.87,120.59543197899548L117.74000000000001,120.12638226478985L118.61,120.32289247794476L119.47999999999999,121.48091548816194L120.35,121.78704107058967L121.22,121.97049331475195L122.08999999999999,122.12090791860844L122.96,122.09261986800378L123.83,122.58808109787397L124.7,122.40634106856676L125.57,123.75530955011048L126.44,123.88748846880095L127.31,123.13815365605737L128.18,123.2592658116241L129.05,123.22901366265108L129.92000000000002,122.35780472992184L130.79,122.13285703664872L131.66,121.9613767542507L132.53,122.34506183135899L133.4,122.60416986335923L134.27,123.80126480079318L135.14000000000001,124.91649398353809L136.01,125.38767889570323L136.88,126.05971828189742L137.75,126.47545521055865L138.62,126.37324462291721L139.49,126.85456854760632L140.35999999999999,126.7604172149896L141.23,127.33916538985453L142.1,127.58822856479303L142.97,127.67628341311547L143.84,128.03434376525905L144.71,128.48704902125783L145.58,128.73433429731105L146.45,128.9728982032471L147.32,128.35742034459057L148.19,128.4714572988302L149.06,128.42854992948648L149.93,129.10236670870336L150.8,129.3366505419282L151.67000000000002,129.6994337150495L152.54000000000002,129.6974419062758L153.41,129.85652372443656L154.28,129.91406431575152L155.15,129.89004778134546L156.02,130.94560235131985L156.89000000000001,130.91086083967724L157.76000000000002,130.5052466019858L158.63000000000002,130.584129406504L159.5,130.46033732843782L160.37,129.46759578608336L161.24,130.17330464223454L162.11,129.61403843632428L162.98000000000002,128.90708599950378L163.85,129.10531040707528L164.72,128.33760521135594L165.58999999999997,129.54938908070585L166.45999999999998,130.50185395100445L167.32999999999998,130.65729970057615L168.2,131.11784696599298L169.07,131.32363525130336L169.94,131.73933735718552L170.81,132.28053184459174L171.67999999999998,132.7190128367006L172.54999999999998,132.7982335687196L173.42,132.8524979676827L174.29,133.04754516296867L175.16,133.7476640170753L176.03,134.11647931321673L176.9,133.72462664083878L177.77,134.18186896720417L178.64,134.14401245436687L179.51,134.00008447021358L180.38,134.08979655789548L181.25,133.88671321392954L182.12,134.25521954387108L182.99,134.98305366671747L183.86,135.25545164147164L184.73,135.29658022386172L185.6,135.41630992892502L186.47,135.52581374578972L187.34,135.3072701906588L188.21,135.51211153020168L189.08,135.8670846409865L189.95000000000002,135.48198141464908L190.82000000000002,135.45763138418985L191.69,135.55249816383565L192.56,135.4806573760846L193.43,135.71367965601488L194.3,135.85066055675765L195.17000000000002,136.55533226893877L196.04000000000002,136.6353679622631L196.91000000000003,136.18915294986064L197.78,135.9830398045844L198.65,137.05853377393368L199.51999999999998,136.1542765841147L200.39,136.63153657076037L201.26,136.63604267435494L202.13,136.59336865968413L203,137.0746303789857L203.86999999999998,137.4436956163074L204.73999999999998,137.48821226026993L205.60999999999999,137.0513870468009L206.48,136.27970972616225L207.35,136.61895117139073L208.22,135.87489025152303L209.09,135.42562123238702L209.95999999999998,136.02290149135044L210.82999999999998,136.10273723706055L211.7,135.6561306496442L212.57,136.54645178369003L213.44,137.2492635655056L214.31,137.49892675241023L215.18,137.50591787569974L216.05,138.42667760007106L216.92,138.45984131171676L217.79,138.51442756186265L218.66,138.6347044889521L219.53,138.39093414792623L220.4,138.41024517241925L221.27,138.23892424665746L222.14000000000001,138.21746812134128L223.01,138.68899484113624L223.88,138.88629664135865L224.75,139.18963201051966L225.62,139.5824871356505L226.49,139.96706964345086L227.36,139.34627474069524L228.23000000000002,139.93453769772353L229.10000000000002,139.59616976654846L229.97,139.47415563015787L230.84,139.73876736491113L231.71,139.5775723129548L232.58,140.04254711091744L233.45000000000002,140.0418064517137L234.32000000000002,140.13695782471123L235.19000000000003,140.73304193900222L236.05999999999997,140.58239064540473L236.92999999999998,140.88570311195684L237.79999999999998,141.46140353482895L238.67,141.08897765382147L239.54,141.1110349513191L240.41,141.28628257444657L241.28,141.12955403389088L242.14999999999998,141.14869919541124L243.01999999999998,141.4915752562953L243.89,141.72554796313827L244.76,141.54219610489187L245.63,141.0738293860448L246.5,141.3547630900881L247.37,141.6797880254745L248.24,141.66898350254058L249.10999999999999,141.6160075854808L249.98,141.7108682406021L250.85,141.95165249692127L251.72,142.1033594224343L252.59,142.01088432324295L253.46,142.41329862983443L254.33,142.32851877227844L255.2,142.47541915085313L256.07,142.8887013937276L256.94,143.19122483403925" style="fill: none;" fill="none"></path></g></g></g></g><g opacity="0.2"><g><g><g><path stroke="rgb(255, 112, 67)" stroke-width="2px" d="M32.480000000000004,-0.6024327959332978L33.35,4.6268157958984375L34.22,13.419443947928286L35.089999999999996,15.373603820800781L35.96,20.857677459716797L36.83,25.376214436122346L37.7,26.58532387869699L38.57,28.545400891985203L39.440000000000005,31.450935091291164L40.31,30.67392240251813L41.18,33.575406755719875L42.05,36.946139744349885L42.919999999999995,38.52613748822894L43.79,38.54093033926828L44.66,42.41682706560407L45.53,45.753099986485076L46.4,49.02578789847238L47.27,54.94719641549246L48.14,57.736012595040464L49.010000000000005,57.926476614815854L49.879999999999995,60.2684759412493L50.75,62.72532599312918L51.62,66.87974057878766L52.489999999999995,70.48468562534877L53.36,72.11379078456334L54.23,73.66255378723145L55.1,76.7757214137486L55.97,75.70825958251953L56.84,80.17269352504185L57.71,82.99002838134766L58.580000000000005,83.82458768572126L59.449999999999996,86.32268796648297L60.32,85.11161422729492L61.19,87.11873735700335L62.06,90.71422467912946L62.93,90.3728735787528L63.8,90.78755841936383L64.67,92.04160417829242L65.54,84.73718534197126L66.41,86.91333498273578L67.28,87.58616719927106L68.14999999999999,92.17607361929757L69.02,94.69369561331612L69.89,95.66185133797782L70.76,98.07172802516394L71.63,99.47995894295829L72.5,96.92695535932269L73.37,100.78866549900599L74.24,101.44311577933175L75.11,102.14436967032296L75.98,101.6336283002581L76.85000000000001,101.47000966753278L77.72,105.05123765127999L78.59,104.6706006186349L79.46000000000001,105.66868155343192L80.33000000000001,104.82650756835938L81.2,104.87377193995886L82.07,105.2251627785819L82.94,107.31832695007324L83.80999999999999,103.85097966875348L84.67999999999999,105.8081223624093L85.55,108.36837686811175L86.42,108.57930837358747L87.28999999999999,109.0794279915946L88.16,110.05284609113421L89.03,112.07182775224958L89.9,112.39942877633231L90.77,111.92438425336566L91.64,114.40303557259696L92.51,114.42845017569405L93.38,114.21810068402972L94.25,114.0619512285505L95.12,115.14226586478097L95.99000000000001,110.98763302394323L96.86,108.88071877615792L97.73,114.25377328055245L98.60000000000001,112.17057609558105L99.47000000000001,115.88236917768207L100.33999999999999,113.46761812482562L101.21,112.25690814426966L102.08,112.2965578351702L102.94999999999999,107.2809568132673L103.82,114.85630307878766L104.69,113.93681825910296L105.56,115.05615207127161L106.42999999999999,116.80265426635742L107.3,118.35733440944128L108.17,115.71925980704171L109.04,114.1544429234096L109.91,118.29673222133093L110.78,117.69379016331263L111.65,118.72453662327356L112.52000000000001,119.80817358834403L113.39,121.08826446533203L114.26,118.760039465768L115.13000000000001,120.16807637895856L116,119.338682447161L116.87,122.23723248073034L117.74000000000001,119.42280769348145L118.61,120.61765779767718L119.47999999999999,123.21795000348773L120.35,122.24622944423132L121.22,122.2456716809954L122.08999999999999,122.34652982439313L122.96,122.0501877920968L123.83,123.33127294267926L124.7,122.1337310246059L125.57,125.77876227242606L126.44,124.08575684683663L127.31,122.01415143694196L128.18,123.44093404497418L129.05,123.18363543919153L129.92000000000002,121.050991330828L130.79,121.79543549673897L131.66,121.7041563306536L132.53,122.92058944702148L133.4,122.9928319113595L134.27,125.59690720694405L135.14000000000001,126.58933775765556L136.01,126.09445626395089L136.88,127.0677773611886L137.75,127.0990606035505L138.62,126.21992874145508L139.49,127.57655443464007L140.35999999999999,126.61919021606445L141.23,128.20728765215193L142.1,127.96182332720075L142.97,127.80836568559918L143.84,128.57143429347448L144.71,129.166106905256L145.58,129.1052622113909L146.45,129.33074406215124L147.32,127.43420355660575L148.19,128.64251273018974L149.06,128.36418887547083L149.93,130.1130918775286L150.8,129.6880762917655L151.67000000000002,130.24360847473145L152.54000000000002,129.69445419311523L153.41,130.0951464516776L154.28,130.00037520272392L155.15,129.85402297973633L156.02,132.52893420628138L156.89000000000001,130.8587485722133L157.76000000000002,129.89682524544853L158.63000000000002,130.70245361328125L159.5,130.27464921133858L160.37,127.97848347255163L161.24,131.23186792646135L162.11,128.77513912745886L162.98000000000002,127.84665734427315L163.85,129.40264701843262L164.72,127.18604741777692L165.58999999999997,131.36706488473075L166.45999999999998,131.93055125645228L167.32999999999998,130.89046832493372L168.2,131.8086678641183L169.07,131.63231767926897L169.94,132.36289051600866L170.81,133.09232357570104L171.67999999999998,133.37673432486397L172.54999999999998,132.91706466674805L173.42,132.93389456612724L174.29,133.34011595589774L175.16,134.79784229823522L176.03,134.66970225742884L176.9,133.1368476322719L177.77,134.86773245675224L178.64,134.08722768511092L179.51,133.78419249398368L180.38,134.22436468941825L181.25,133.5820881979806L182.12,134.8079790387835L182.99,136.07480485098702L183.86,135.66404860360282L184.73,135.35827309744698L185.6,135.59590448651994L186.47,135.6900694710868L187.34,134.97945485796248L188.21,135.8193735395159L189.08,136.39954430716378L189.95000000000002,134.904326575143L190.82000000000002,135.42110633850098L191.69,135.69479833330428L192.56,135.372896194458L193.43,136.06321307591028L194.3,136.0561319078718L195.17000000000002,137.61233983721053L196.04000000000002,136.7554215022496L196.91000000000003,135.51983043125696L197.78,135.67387008666992L198.65,138.6717747279576L199.51999999999998,134.79789079938615L200.39,137.34742655072893L201.26,136.6428018297468L202.13,136.52935763767786L203,137.79652295793807L203.86999999999998,137.99729347229004L204.73999999999998,137.55498722621374L205.60999999999999,136.39614922659737L206.48,135.12219374520438L207.35,137.1278133392334L208.22,134.75879887172155L209.09,134.75171770368303L209.95999999999998,136.91882187979562L210.82999999999998,136.2224908556257L211.7,134.98622076851981L212.57,137.88193348475866L213.44,138.30348123822893L214.31,137.87342153276717L215.18,137.51640456063407L216.05,139.80781718662806L216.92,138.50958687918526L217.79,138.59630693708147L218.66,138.81511987958635L219.53,138.0252786363874L220.4,138.43921170915877L221.27,137.98194285801478L222.14000000000001,138.18528393336706L223.01,139.3962849208287L223.88,139.18224934169226L224.75,139.6446350642613L225.62,140.1717698233468L226.49,140.54394340515137L227.36,138.4150823865618L228.23000000000002,140.8169321332659L229.10000000000002,139.08861786978585L229.97,139.29113442557198L230.84,140.13568496704102L231.71,139.33577973502022L232.58,140.74000930786133L233.45000000000002,140.04069546290808L234.32000000000002,140.2796848842076L235.19000000000003,141.62716811043876L236.05999999999997,140.35641370500838L236.92999999999998,141.34067181178503L237.79999999999998,142.32495416913713L238.67,140.53033883231026L239.54,141.14412089756556L240.41,141.54915400913782L241.28,140.89446122305733L242.14999999999998,141.17741693769182L243.01999999999998,142.00588934762138L243.89,142.07650702340263L244.76,141.26716831752233L245.63,140.37127930777413L246.5,141.77616364615304L247.37,142.167325428554L248.24,141.65277671813965L249.10999999999999,141.5365437098912L249.98,141.85315922328405L250.85,142.31282888139998L251.72,142.33091981070382L252.59,141.87217167445593L253.46,143.01692008972168L254.33,142.20134898594446L255.2,142.69576971871513L256.07,143.5086247580392L256.94,143.64500999450684" style="fill: none;" fill="none"></path></g></g></g></g></g></g><g transform="translate(40, 178)" clip-path="url(#clip_1)"><clipPath id="clip_1"><rect width="290" height="22"></rect></clipPath><g><g><line x1="0" y1="0" x2="0" y2="5" style="visibility: inherit;" fill="rgb(0, 0, 0)" stroke="rgb(204, 204, 204)" stroke-width="1px"></line><line x1="29" y1="0" x2="29" y2="5" style="visibility: inherit;" fill="rgb(0, 0, 0)" stroke="rgb(204, 204, 204)" stroke-width="1px"></line><line x1="58" y1="0" x2="58" y2="5" style="visibility: inherit;" fill="rgb(0, 0, 0)" stroke="rgb(204, 204, 204)" stroke-width="1px"></line><line x1="87" y1="0" x2="87" y2="5" style="visibility: inherit;" fill="rgb(0, 0, 0)" stroke="rgb(204, 204, 204)" stroke-width="1px"></line><line x1="116" y1="0" x2="116" y2="5" style="visibility: inherit;" fill="rgb(0, 0, 0)" stroke="rgb(204, 204, 204)" stroke-width="1px"></line><line x1="145" y1="0" x2="145" y2="5" style="visibility: inherit;" fill="rgb(0, 0, 0)" stroke="rgb(204, 204, 204)" stroke-width="1px"></line><line x1="174" y1="0" x2="174" y2="5" style="visibility: inherit;" fill="rgb(0, 0, 0)" stroke="rgb(204, 204, 204)" stroke-width="1px"></line><line x1="203" y1="0" x2="203" y2="5" style="visibility: inherit;" fill="rgb(0, 0, 0)" stroke="rgb(204, 204, 204)" stroke-width="1px"></line><line x1="232" y1="0" x2="232" y2="5" style="visibility: inherit;" fill="rgb(0, 0, 0)" stroke="rgb(204, 204, 204)" stroke-width="1px"></line><line x1="261" y1="0" x2="261" y2="5" style="visibility: inherit;" fill="rgb(0, 0, 0)" stroke="rgb(204, 204, 204)" stroke-width="1px"></line><line x1="290" y1="0" x2="290" y2="5" style="visibility: inherit;" fill="rgb(0, 0, 0)" stroke="rgb(204, 204, 204)" stroke-width="1px"></line></g><g transform="translate(0, 8)"><text x="0" y="0" dx="0em" dy="0.95em" style="text-anchor: middle; visibility: hidden; font-family: Roboto, sans-serif; font-size: 12px; font-weight: 200;" fill="rgb(50, 49, 63)" stroke="none" stroke-width="1px">-10k</text><text x="29" y="0" dx="0em" dy="0.95em" style="text-anchor: middle; visibility: inherit; font-family: Roboto, sans-serif; font-size: 12px; font-weight: 200;" fill="rgb(50, 49, 63)" stroke="none" stroke-width="1px">0</text><text x="58" y="0" dx="0em" dy="0.95em" style="text-anchor: middle; visibility: inherit; font-family: Roboto, sans-serif; font-size: 12px; font-weight: 200;" fill="rgb(50, 49, 63)" stroke="none" stroke-width="1px">10k</text><text x="87" y="0" dx="0em" dy="0.95em" style="text-anchor: middle; visibility: inherit; font-family: Roboto, sans-serif; font-size: 12px; font-weight: 200;" fill="rgb(50, 49, 63)" stroke="none" stroke-width="1px">20k</text><text x="116" y="0" dx="0em" dy="0.95em" style="text-anchor: middle; visibility: inherit; font-family: Roboto, sans-serif; font-size: 12px; font-weight: 200;" fill="rgb(50, 49, 63)" stroke="none" stroke-width="1px">30k</text><text x="145" y="0" dx="0em" dy="0.95em" style="text-anchor: middle; visibility: inherit; font-family: Roboto, sans-serif; font-size: 12px; font-weight: 200;" fill="rgb(50, 49, 63)" stroke="none" stroke-width="1px">40k</text><text x="174" y="0" dx="0em" dy="0.95em" style="text-anchor: middle; visibility: inherit; font-family: Roboto, sans-serif; font-size: 12px; font-weight: 200;" fill="rgb(50, 49, 63)" stroke="none" stroke-width="1px">50k</text><text x="203" y="0" dx="0em" dy="0.95em" style="text-anchor: middle; visibility: inherit; font-family: Roboto, sans-serif; font-size: 12px; font-weight: 200;" fill="rgb(50, 49, 63)" stroke="none" stroke-width="1px">60k</text><text x="232" y="0" dx="0em" dy="0.95em" style="text-anchor: middle; visibility: inherit; font-family: Roboto, sans-serif; font-size: 12px; font-weight: 200;" fill="rgb(50, 49, 63)" stroke="none" stroke-width="1px">70k</text><text x="261" y="0" dx="0em" dy="0.95em" style="text-anchor: middle; visibility: inherit; font-family: Roboto, sans-serif; font-size: 12px; font-weight: 200;" fill="rgb(50, 49, 63)" stroke="none" stroke-width="1px">80k</text><text x="290" y="0" dx="0em" dy="0.95em" style="text-anchor: middle; visibility: hidden; font-family: Roboto, sans-serif; font-size: 12px; font-weight: 200;" fill="rgb(50, 49, 63)" stroke="none" stroke-width="1px">90k</text></g><line x1="0" y1="0" x2="290" y2="0" fill="rgb(0, 0, 0)" stroke="rgb(204, 204, 204)" stroke-width="1px"></line></g></g></g></g></svg>