<svg viewBox="0 0 330 200" xmlns="http://www.w3.org/2000/svg"><g><g><g><g><g><line x1="20.390625" y1="161.23519529705015" x2="15.390625" y2="161.23519529705015" style="visibility: inherit;" fill="rgb(0, 0, 0)" stroke="rgb(204, 204, 204)" stroke-width="1px"></line><line x1="20.390625" y1="77.98392880659414" x2="15.390625" y2="77.98392880659414" style="visibility: inherit;" fill="rgb(0, 0, 0)" stroke="rgb(204, 204, 204)" stroke-width="1px"></line><line x1="20.390625" y1="7.595985923421277" x2="15.390625" y2="7.595985923421277" style="visibility: inherit;" fill="rgb(0, 0, 0)" stroke="rgb(204, 204, 204)" stroke-width="1px"></line></g><g transform="translate(10.390625, 0)"><text x="0" y="161.23519529705015" dx="0em" dy="0.3em" style="text-anchor: end; visibility: inherit; font-family: Roboto, sans-serif; font-size: 12px; font-weight: 200;" fill="rgb(50, 49, 63)" stroke="none" stroke-width="1px">5</text><text x="0" y="77.98392880659414" dx="0em" dy="0.3em" style="text-anchor: end; visibility: inherit; font-family: Roboto, sans-serif; font-size: 12px; font-weight: 200;" fill="rgb(50, 49, 63)" stroke="none" stroke-width="1px">6</text><text x="0" y="7.595985923421277" dx="0em" dy="0.3em" style="text-anchor: end; visibility: inherit; font-family: Roboto, sans-serif; font-size: 12px; font-weight: 200;" fill="rgb(50, 49, 63)" stroke="none" stroke-width="1px">7</text></g><line x1="20.390625" y1="0" x2="20.390625" y2="178" fill="rgb(0, 0, 0)" stroke="rgb(204, 204, 204)" stroke-width="1px"></line></g></g><g transform="translate(20, 0)" clip-path="url(#clip_0)"><clipPath id="clip_0"><rect width="309" height="178"></rect></clipPath><g><g><g><line x1="0" y1="0" x2="0" y2="178" fill="rgb(0, 0, 0)" stroke="rgb(60, 60, 60)" stroke-width="1px" opacity="0.25"></line><line x1="20.640625" y1="0" x2="20.640625" y2="178" fill="rgb(0, 0, 0)" stroke="rgb(60, 60, 60)" stroke-width="1px" opacity="0.25"></line><line x1="41.28125" y1="0" x2="41.28125" y2="178" fill="rgb(0, 0, 0)" stroke="rgb(60, 60, 60)" stroke-width="1px" opacity="0.25"></line><line x1="61.921875" y1="0" x2="61.921875" y2="178" fill="rgb(0, 0, 0)" stroke="rgb(60, 60, 60)" stroke-width="1px" opacity="0.25"></line><line x1="82.5625" y1="0" x2="82.5625" y2="178" fill="rgb(0, 0, 0)" stroke="rgb(60, 60, 60)" stroke-width="1px" opacity="0.25"></line><line x1="103.203125" y1="0" x2="103.203125" y2="178" fill="rgb(0, 0, 0)" stroke="rgb(60, 60, 60)" stroke-width="1px" opacity="0.25"></line><line x1="123.84375" y1="0" x2="123.84375" y2="178" fill="rgb(0, 0, 0)" stroke="rgb(60, 60, 60)" stroke-width="1px" opacity="0.25"></line><line x1="144.484375" y1="0" x2="144.484375" y2="178" fill="rgb(0, 0, 0)" stroke="rgb(60, 60, 60)" stroke-width="1px" opacity="0.25"></line><line x1="165.125" y1="0" x2="165.125" y2="178" fill="rgb(0, 0, 0)" stroke="rgb(60, 60, 60)" stroke-width="1px" opacity="0.25"></line><line x1="185.765625" y1="0" x2="185.765625" y2="178" fill="rgb(0, 0, 0)" stroke="rgb(60, 60, 60)" stroke-width="1px" opacity="0.25"></line><line x1="206.40625" y1="0" x2="206.40625" y2="178" fill="rgb(0, 0, 0)" stroke="rgb(60, 60, 60)" stroke-width="1px" opacity="0.25"></line><line x1="227.04687499999997" y1="0" x2="227.04687499999997" y2="178" fill="rgb(0, 0, 0)" stroke="rgb(60, 60, 60)" stroke-width="1px" opacity="0.25"></line><line x1="247.6875" y1="0" x2="247.6875" y2="178" fill="rgb(0, 0, 0)" stroke="rgb(60, 60, 60)" stroke-width="1px" opacity="0.25"></line><line x1="268.328125" y1="0" x2="268.328125" y2="178" fill="rgb(0, 0, 0)" stroke="rgb(60, 60, 60)" stroke-width="1px" opacity="0.25"></line><line x1="288.96875" y1="0" x2="288.96875" y2="178" fill="rgb(0, 0, 0)" stroke="rgb(60, 60, 60)" stroke-width="1px" opacity="0.25"></line><line x1="309.609375" y1="0" x2="309.609375" y2="178" fill="rgb(0, 0, 0)" stroke="rgb(60, 60, 60)" stroke-width="1px" opacity="0.25"></line></g><g><line x1="0" y1="161.23519529705015" x2="309.609375" y2="161.23519529705015" fill="rgb(0, 0, 0)" stroke="rgb(60, 60, 60)" stroke-width="1px" opacity="0.25"></line><line x1="0" y1="77.98392880659414" x2="309.609375" y2="77.98392880659414" fill="rgb(0, 0, 0)" stroke="rgb(60, 60, 60)" stroke-width="1px" opacity="0.25"></line><line x1="0" y1="7.595985923421277" x2="309.609375" y2="7.595985923421277" fill="rgb(0, 0, 0)" stroke="rgb(60, 60, 60)" stroke-width="1px" opacity="0.25"></line></g></g></g><g><g><line x1="20.640625" y1="0" x2="20.640625" y2="178" fill="rgb(0, 0, 0)" stroke="rgb(153, 153, 153)" stroke-width="1.5px"></line></g></g><g><g><g><g><g><path stroke="rgb(255, 112, 67)" stroke-width="2px" d="M29.92890625,-3.7120013176206714L33.025,12.832636008734797L36.12109375,25.428571428571495L39.2171875,34.86105882671173L42.313281249999996,43.40023853423772L45.409375,53.64201170028753L48.505468750000006,63.1386189128468L51.6015625,71.13131894597802L54.69765625,76.53693362628488L57.79375,81.54061257511904L60.88984375,85.22352094375157L63.9859375,89.57998813797684L67.08203125,92.88192008922552L70.178125,96.18492768241518L73.27421875,99.35072132816192L76.3703125,102.7068925690565L79.46640624999999,105.22093398100412L82.5625,107.91295216519511L85.65859375000001,110.2134877904944L88.7546875,113.35424836499197L91.85078125000001,115.6591129060701L94.94687499999999,117.58228977786118L98.04296875,119.43737845585551L101.1390625,120.91588295641978L104.23515625,123.00335513526443L107.33125,124.61030641389685L110.42734375,125.98988373155495L113.52343749999999,127.59091231747534L116.61953125,128.85107042809977L119.715625,129.99302465129907L122.81171875,131.37875047010414L125.9078125,132.2126830193601L129.00390625,133.32393234906795L132.1,133.7903840481461L135.19609375,135.01975469478464L138.29218749999998,135.96766822217938L141.38828125,136.29162263780992L144.484375,137.36630034958165L147.58046875,137.82699605861845L150.67656250000002,138.07007459029947L153.77265624999998,138.636145809216L156.86875,139.36465896572835L159.96484375000003,139.9374317837067L163.0609375,141.04183360524758L166.15703125,143.00416208026434L169.25312499999998,143.63928184858892L172.34921875,144.90909395666515L175.4453125,145.56111141653645L178.54140625,146.17556842336836L181.6375,146.76831876569636L184.73359375,146.68860295580728L187.8296875,146.73465813282453L190.92578125,147.66022483211606L194.02187500000002,148.18929653895822L197.11796875000002,148.43109947756494L200.21406249999998,149.25956306207763L203.31015624999998,148.62778689144818L206.40625,147.35508657979773L209.50234375,147.36661826307588L212.5984375,148.29139890137128L215.69453124999998,149.41717386550872L218.790625,149.6861522893213L221.88671875,148.6170226082603L224.9828125,150.2069195605007L228.07890625000002,149.56181035169845L231.175,150.32189768359805L234.27109375,150.76144911138675L237.36718750000003,152.11108953896294L240.46328125,151.2328996998491L243.559375,152.17831130654585L246.65546874999998,152.40470622660692L249.7515625,152.5714285714285L252.84765625,153.38449678383742L255.94375,153.13238123420945L259.03984375,152.83868626698006L262.1359375,153.85065872428083L265.23203125000003,154.37414806702463L268.328125,155.12942706664424L271.42421875,154.5980729076333L274.5203125,154.4487219996428L277.61640625,155.5508191542113L280.7125,155.62166304256394L283.80859375,155.69499407380928L286.90468749999997,154.8315129999266L290.00078125,156.63177088587497L293.096875,156.18297168421344L296.19296875,154.54804152491747L299.2890625,156.13870021548948L302.38515625,156.64794494740883" style="fill: none;" fill="none"></path></g></g></g></g><g opacity="0.2"><g><g><g><path stroke="rgb(255, 112, 67)" stroke-width="2px" d="M23.736718749999998,-73.50611682302184L26.8328125,6.924961608464555L29.92890625,17.617929537785542L33.025,33.088625904318434L36.12109375,42.414812002977385L39.2171875,48.23937469962275L42.313281249999996,55.895719653476725L45.409375,68.9987036134371L48.505468750000006,77.51488404594701L51.6015625,83.26379085205316L54.69765625,84.71705722290486L57.79375,89.12262699194898L60.88984375,90.79196419130123L63.9859375,96.18492603246018L67.08203125,97.87608584145165L70.178125,101.1823110017149L73.27421875,104.13959181358484L76.3703125,107.78699547574804L79.46640624999999,109.01775426835665L82.5625,111.98072445689829L85.65859375000001,113.68604318983246L88.7546875,118.10616559734474L91.85078125000001,119.13832585865535L94.94687499999999,120.48230545134244L98.04296875,122.23420634572918L101.1390625,123.14264852430594L104.23515625,126.15256109333583L107.33125,127.03138447442261L110.42734375,128.06709526051137L113.52343749999999,130.0030293616316L116.61953125,130.74785203047796L119.715625,131.7113285112326L122.81171875,133.4652561050732L125.9078125,133.4664444408344L129.00390625,134.99589355003317L132.1,134.4909562360528L135.19609375,136.87003904602625L138.29218749999998,137.393238404445L141.38828125,136.77798560697107L144.484375,138.9830743211916L147.58046875,138.51891231422675L150.67656250000002,138.43493518828933L153.77265624999998,139.48657061824224L156.86875,140.45961267833266L159.96484375000003,140.79794040937477L163.0609375,142.70346098885395L166.15703125,145.96355815666016L169.25312499999998,144.5936209581453L172.34921875,146.82045782719902L175.4453125,146.54088662601905L178.54140625,147.09880707684857L181.6375,147.65888953441456L184.73359375,146.56905532870414L187.8296875,146.80374960926483L190.92578125,149.05210215795356L194.02187500000002,148.98405529472367L197.11796875000002,148.79404414375563L200.21406249999998,150.50508362739913L203.31015624999998,147.6817586028368L206.40625,145.45266270639223L209.50234375,147.38391633406343L212.5984375,149.68209113889205L215.69453124999998,151.11105765319667L218.790625,150.08991724536463L221.88671875,147.01800711786052L224.9828125,152.60219316305L228.07890625000002,148.59585221928126L231.175,151.46440629148466L234.27109375,151.4215706282772L237.36718750000003,154.1430594935144L240.46328125,149.9187736769448L243.559375,153.60010908438366L246.65546874999998,152.74450921186275L249.7515625,152.82162628378288L252.84765625,154.60682014275872L255.94375,152.7544687221039L259.03984375,152.39849770687334L262.1359375,155.3728350690717L265.23203125000003,155.16050909331233L268.328125,156.26469315656416L271.42421875,153.80219922883114L274.5203125,154.22478719113099L277.61640625,157.2089685547122L280.7125,155.7279494881819L283.80859375,155.8050127066756L286.90468749999997,153.53934533067647L290.00078125,159.34553623673793L293.096875,155.51059888904646L296.19296875,152.1065702295661L299.2890625,158.53512644379973L302.38515625,157.41287851348721" style="fill: none;" fill="none"></path></g></g></g></g></g></g><g transform="translate(20, 178)" clip-path="url(#clip_1)"><clipPath id="clip_1"><rect width="309" height="22"></rect></clipPath><g><g><line x1="0" y1="0" x2="0" y2="5" style="visibility: inherit;" fill="rgb(0, 0, 0)" stroke="rgb(204, 204, 204)" stroke-width="1px"></line><line x1="20.640625" y1="0" x2="20.640625" y2="5" style="visibility: inherit;" fill="rgb(0, 0, 0)" stroke="rgb(204, 204, 204)" stroke-width="1px"></line><line x1="41.28125" y1="0" x2="41.28125" y2="5" style="visibility: inherit;" fill="rgb(0, 0, 0)" stroke="rgb(204, 204, 204)" stroke-width="1px"></line><line x1="61.921875" y1="0" x2="61.921875" y2="5" style="visibility: inherit;" fill="rgb(0, 0, 0)" stroke="rgb(204, 204, 204)" stroke-width="1px"></line><line x1="82.5625" y1="0" x2="82.5625" y2="5" style="visibility: inherit;" fill="rgb(0, 0, 0)" stroke="rgb(204, 204, 204)" stroke-width="1px"></line><line x1="103.203125" y1="0" x2="103.203125" y2="5" style="visibility: inherit;" fill="rgb(0, 0, 0)" stroke="rgb(204, 204, 204)" stroke-width="1px"></line><line x1="123.84375" y1="0" x2="123.84375" y2="5" style="visibility: inherit;" fill="rgb(0, 0, 0)" stroke="rgb(204, 204, 204)" stroke-width="1px"></line><line x1="144.484375" y1="0" x2="144.484375" y2="5" style="visibility: inherit;" fill="rgb(0, 0, 0)" stroke="rgb(204, 204, 204)" stroke-width="1px"></line><line x1="165.125" y1="0" x2="165.125" y2="5" style="visibility: inherit;" fill="rgb(0, 0, 0)" stroke="rgb(204, 204, 204)" stroke-width="1px"></line><line x1="185.765625" y1="0" x2="185.765625" y2="5" style="visibility: inherit;" fill="rgb(0, 0, 0)" stroke="rgb(204, 204, 204)" stroke-width="1px"></line><line x1="206.40625" y1="0" x2="206.40625" y2="5" style="visibility: inherit;" fill="rgb(0, 0, 0)" stroke="rgb(204, 204, 204)" stroke-width="1px"></line><line x1="227.04687499999997" y1="0" x2="227.04687499999997" y2="5" style="visibility: inherit;" fill="rgb(0, 0, 0)" stroke="rgb(204, 204, 204)" stroke-width="1px"></line><line x1="247.6875" y1="0" x2="247.6875" y2="5" style="visibility: inherit;" fill="rgb(0, 0, 0)" stroke="rgb(204, 204, 204)" stroke-width="1px"></line><line x1="268.328125" y1="0" x2="268.328125" y2="5" style="visibility: inherit;" fill="rgb(0, 0, 0)" stroke="rgb(204, 204, 204)" stroke-width="1px"></line><line x1="288.96875" y1="0" x2="288.96875" y2="5" style="visibility: inherit;" fill="rgb(0, 0, 0)" stroke="rgb(204, 204, 204)" stroke-width="1px"></line><line x1="309.609375" y1="0" x2="309.609375" y2="5" style="visibility: inherit;" fill="rgb(0, 0, 0)" stroke="rgb(204, 204, 204)" stroke-width="1px"></line></g><g transform="translate(0, 8)"><text x="0" y="0" dx="0em" dy="0.95em" style="text-anchor: middle; visibility: hidden; font-family: Roboto, sans-serif; font-size: 12px; font-weight: 200;" fill="rgb(50, 49, 63)" stroke="none" stroke-width="1px">-2k</text><text x="20.640625" y="0" dx="0em" dy="0.95em" style="text-anchor: middle; visibility: inherit; font-family: Roboto, sans-serif; font-size: 12px; font-weight: 200;" fill="rgb(50, 49, 63)" stroke="none" stroke-width="1px">0</text><text x="41.28125" y="0" dx="0em" dy="0.95em" style="text-anchor: middle; visibility: hidden; font-family: Roboto, sans-serif; font-size: 12px; font-weight: 200;" fill="rgb(50, 49, 63)" stroke="none" stroke-width="1px">2k</text><text x="61.921875" y="0" dx="0em" dy="0.95em" style="text-anchor: middle; visibility: inherit; font-family: Roboto, sans-serif; font-size: 12px; font-weight: 200;" fill="rgb(50, 49, 63)" stroke="none" stroke-width="1px">4k</text><text x="82.5625" y="0" dx="0em" dy="0.95em" style="text-anchor: middle; visibility: hidden; font-family: Roboto, sans-serif; font-size: 12px; font-weight: 200;" fill="rgb(50, 49, 63)" stroke="none" stroke-width="1px">6k</text><text x="103.203125" y="0" dx="0em" dy="0.95em" style="text-anchor: middle; visibility: inherit; font-family: Roboto, sans-serif; font-size: 12px; font-weight: 200;" fill="rgb(50, 49, 63)" stroke="none" stroke-width="1px">8k</text><text x="123.84375" y="0" dx="0em" dy="0.95em" style="text-anchor: middle; visibility: hidden; font-family: Roboto, sans-serif; font-size: 12px; font-weight: 200;" fill="rgb(50, 49, 63)" stroke="none" stroke-width="1px">10k</text><text x="144.484375" y="0" dx="0em" dy="0.95em" style="text-anchor: middle; visibility: inherit; font-family: Roboto, sans-serif; font-size: 12px; font-weight: 200;" fill="rgb(50, 49, 63)" stroke="none" stroke-width="1px">12k</text><text x="165.125" y="0" dx="0em" dy="0.95em" style="text-anchor: middle; visibility: hidden; font-family: Roboto, sans-serif; font-size: 12px; font-weight: 200;" fill="rgb(50, 49, 63)" stroke="none" stroke-width="1px">14k</text><text x="185.765625" y="0" dx="0em" dy="0.95em" style="text-anchor: middle; visibility: inherit; font-family: Roboto, sans-serif; font-size: 12px; font-weight: 200;" fill="rgb(50, 49, 63)" stroke="none" stroke-width="1px">16k</text><text x="206.40625" y="0" dx="0em" dy="0.95em" style="text-anchor: middle; visibility: hidden; font-family: Roboto, sans-serif; font-size: 12px; font-weight: 200;" fill="rgb(50, 49, 63)" stroke="none" stroke-width="1px">18k</text><text x="227.04687499999997" y="0" dx="0em" dy="0.95em" style="text-anchor: middle; visibility: inherit; font-family: Roboto, sans-serif; font-size: 12px; font-weight: 200;" fill="rgb(50, 49, 63)" stroke="none" stroke-width="1px">20k</text><text x="247.6875" y="0" dx="0em" dy="0.95em" style="text-anchor: middle; visibility: hidden; font-family: Roboto, sans-serif; font-size: 12px; font-weight: 200;" fill="rgb(50, 49, 63)" stroke="none" stroke-width="1px">22k</text><text x="268.328125" y="0" dx="0em" dy="0.95em" style="text-anchor: middle; visibility: inherit; font-family: Roboto, sans-serif; font-size: 12px; font-weight: 200;" fill="rgb(50, 49, 63)" stroke="none" stroke-width="1px">24k</text><text x="288.96875" y="0" dx="0em" dy="0.95em" style="text-anchor: middle; visibility: hidden; font-family: Roboto, sans-serif; font-size: 12px; font-weight: 200;" fill="rgb(50, 49, 63)" stroke="none" stroke-width="1px">26k</text><text x="309.609375" y="0" dx="0em" dy="0.95em" style="text-anchor: middle; visibility: hidden; font-family: Roboto, sans-serif; font-size: 12px; font-weight: 200;" fill="rgb(50, 49, 63)" stroke="none" stroke-width="1px">28k</text></g><line x1="0" y1="0" x2="309.609375" y2="0" fill="rgb(0, 0, 0)" stroke="rgb(204, 204, 204)" stroke-width="1px"></line></g></g></g></g></svg>