<svg viewBox="0 0 330 200" xmlns="http://www.w3.org/2000/svg"><g><g><g><g><g><line x1="40" y1="178" x2="35" y2="178" style="visibility: inherit;" fill="rgb(0, 0, 0)" stroke="rgb(204, 204, 204)" stroke-width="1px"></line><line x1="40" y1="160.20000000000002" x2="35" y2="160.20000000000002" style="visibility: inherit;" fill="rgb(0, 0, 0)" stroke="rgb(204, 204, 204)" stroke-width="1px"></line><line x1="40" y1="142.4" x2="35" y2="142.4" style="visibility: inherit;" fill="rgb(0, 0, 0)" stroke="rgb(204, 204, 204)" stroke-width="1px"></line><line x1="40" y1="124.6" x2="35" y2="124.6" style="visibility: inherit;" fill="rgb(0, 0, 0)" stroke="rgb(204, 204, 204)" stroke-width="1px"></line><line x1="40" y1="106.8" x2="35" y2="106.8" style="visibility: inherit;" fill="rgb(0, 0, 0)" stroke="rgb(204, 204, 204)" stroke-width="1px"></line><line x1="40" y1="89" x2="35" y2="89" style="visibility: inherit;" fill="rgb(0, 0, 0)" stroke="rgb(204, 204, 204)" stroke-width="1px"></line><line x1="40" y1="71.2" x2="35" y2="71.2" style="visibility: inherit;" fill="rgb(0, 0, 0)" stroke="rgb(204, 204, 204)" stroke-width="1px"></line><line x1="40" y1="53.400000000000006" x2="35" y2="53.400000000000006" style="visibility: inherit;" fill="rgb(0, 0, 0)" stroke="rgb(204, 204, 204)" stroke-width="1px"></line><line x1="40" y1="35.599999999999994" x2="35" y2="35.599999999999994" style="visibility: inherit;" fill="rgb(0, 0, 0)" stroke="rgb(204, 204, 204)" stroke-width="1px"></line><line x1="40" y1="17.799999999999997" x2="35" y2="17.799999999999997" style="visibility: inherit;" fill="rgb(0, 0, 0)" stroke="rgb(204, 204, 204)" stroke-width="1px"></line><line x1="40" y1="0" x2="35" y2="0" style="visibility: inherit;" fill="rgb(0, 0, 0)" stroke="rgb(204, 204, 204)" stroke-width="1px"></line></g><g transform="translate(30, 0)"><text x="0" y="178" dx="0em" dy="0.3em" style="text-anchor: end; visibility: hidden; font-family: Roboto, sans-serif; font-size: 12px; font-weight: 200;" fill="rgb(50, 49, 63)" stroke="none" stroke-width="1px">5</text><text x="0" y="160.20000000000002" dx="0em" dy="0.3em" style="text-anchor: end; visibility: inherit; font-family: Roboto, sans-serif; font-size: 12px; font-weight: 200;" fill="rgb(50, 49, 63)" stroke="none" stroke-width="1px">5.5</text><text x="0" y="142.4" dx="0em" dy="0.3em" style="text-anchor: end; visibility: hidden; font-family: Roboto, sans-serif; font-size: 12px; font-weight: 200;" fill="rgb(50, 49, 63)" stroke="none" stroke-width="1px">6</text><text x="0" y="124.6" dx="0em" dy="0.3em" style="text-anchor: end; visibility: inherit; font-family: Roboto, sans-serif; font-size: 12px; font-weight: 200;" fill="rgb(50, 49, 63)" stroke="none" stroke-width="1px">6.5</text><text x="0" y="106.8" dx="0em" dy="0.3em" style="text-anchor: end; visibility: hidden; font-family: Roboto, sans-serif; font-size: 12px; font-weight: 200;" fill="rgb(50, 49, 63)" stroke="none" stroke-width="1px">7</text><text x="0" y="89" dx="0em" dy="0.3em" style="text-anchor: end; visibility: inherit; font-family: Roboto, sans-serif; font-size: 12px; font-weight: 200;" fill="rgb(50, 49, 63)" stroke="none" stroke-width="1px">7.5</text><text x="0" y="71.2" dx="0em" dy="0.3em" style="text-anchor: end; visibility: hidden; font-family: Roboto, sans-serif; font-size: 12px; font-weight: 200;" fill="rgb(50, 49, 63)" stroke="none" stroke-width="1px">8</text><text x="0" y="53.400000000000006" dx="0em" dy="0.3em" style="text-anchor: end; visibility: inherit; font-family: Roboto, sans-serif; font-size: 12px; font-weight: 200;" fill="rgb(50, 49, 63)" stroke="none" stroke-width="1px">8.5</text><text x="0" y="35.599999999999994" dx="0em" dy="0.3em" style="text-anchor: end; visibility: hidden; font-family: Roboto, sans-serif; font-size: 12px; font-weight: 200;" fill="rgb(50, 49, 63)" stroke="none" stroke-width="1px">9</text><text x="0" y="17.799999999999997" dx="0em" dy="0.3em" style="text-anchor: end; visibility: inherit; font-family: Roboto, sans-serif; font-size: 12px; font-weight: 200;" fill="rgb(50, 49, 63)" stroke="none" stroke-width="1px">9.5</text><text x="0" y="0" dx="0em" dy="0.3em" style="text-anchor: end; visibility: hidden; font-family: Roboto, sans-serif; font-size: 12px; font-weight: 200;" fill="rgb(50, 49, 63)" stroke="none" stroke-width="1px">10</text></g><line x1="40" y1="0" x2="40" y2="178" fill="rgb(0, 0, 0)" stroke="rgb(204, 204, 204)" stroke-width="1px"></line></g></g><g transform="translate(40, 0)" clip-path="url(#clip_0)"><clipPath id="clip_0"><rect width="290" height="178"></rect></clipPath><g><g><g><line x1="0" y1="0" x2="0" y2="178" fill="rgb(0, 0, 0)" stroke="rgb(60, 60, 60)" stroke-width="1px" opacity="0.25"></line><line x1="36.25" y1="0" x2="36.25" y2="178" fill="rgb(0, 0, 0)" stroke="rgb(60, 60, 60)" stroke-width="1px" opacity="0.25"></line><line x1="72.5" y1="0" x2="72.5" y2="178" fill="rgb(0, 0, 0)" stroke="rgb(60, 60, 60)" stroke-width="1px" opacity="0.25"></line><line x1="108.75" y1="0" x2="108.75" y2="178" fill="rgb(0, 0, 0)" stroke="rgb(60, 60, 60)" stroke-width="1px" opacity="0.25"></line><line x1="145" y1="0" x2="145" y2="178" fill="rgb(0, 0, 0)" stroke="rgb(60, 60, 60)" stroke-width="1px" opacity="0.25"></line><line x1="181.25" y1="0" x2="181.25" y2="178" fill="rgb(0, 0, 0)" stroke="rgb(60, 60, 60)" stroke-width="1px" opacity="0.25"></line><line x1="217.5" y1="0" x2="217.5" y2="178" fill="rgb(0, 0, 0)" stroke="rgb(60, 60, 60)" stroke-width="1px" opacity="0.25"></line><line x1="253.75" y1="0" x2="253.75" y2="178" fill="rgb(0, 0, 0)" stroke="rgb(60, 60, 60)" stroke-width="1px" opacity="0.25"></line><line x1="290" y1="0" x2="290" y2="178" fill="rgb(0, 0, 0)" stroke="rgb(60, 60, 60)" stroke-width="1px" opacity="0.25"></line></g><g><line x1="0" y1="178" x2="290" y2="178" fill="rgb(0, 0, 0)" stroke="rgb(60, 60, 60)" stroke-width="1px" opacity="0.25"></line><line x1="0" y1="160.20000000000002" x2="290" y2="160.20000000000002" fill="rgb(0, 0, 0)" stroke="rgb(60, 60, 60)" stroke-width="1px" opacity="0.25"></line><line x1="0" y1="142.4" x2="290" y2="142.4" fill="rgb(0, 0, 0)" stroke="rgb(60, 60, 60)" stroke-width="1px" opacity="0.25"></line><line x1="0" y1="124.6" x2="290" y2="124.6" fill="rgb(0, 0, 0)" stroke="rgb(60, 60, 60)" stroke-width="1px" opacity="0.25"></line><line x1="0" y1="106.8" x2="290" y2="106.8" fill="rgb(0, 0, 0)" stroke="rgb(60, 60, 60)" stroke-width="1px" opacity="0.25"></line><line x1="0" y1="89" x2="290" y2="89" fill="rgb(0, 0, 0)" stroke="rgb(60, 60, 60)" stroke-width="1px" opacity="0.25"></line><line x1="0" y1="71.2" x2="290" y2="71.2" fill="rgb(0, 0, 0)" stroke="rgb(60, 60, 60)" stroke-width="1px" opacity="0.25"></line><line x1="0" y1="53.400000000000006" x2="290" y2="53.400000000000006" fill="rgb(0, 0, 0)" stroke="rgb(60, 60, 60)" stroke-width="1px" opacity="0.25"></line><line x1="0" y1="35.599999999999994" x2="290" y2="35.599999999999994" fill="rgb(0, 0, 0)" stroke="rgb(60, 60, 60)" stroke-width="1px" opacity="0.25"></line><line x1="0" y1="17.799999999999997" x2="290" y2="17.799999999999997" fill="rgb(0, 0, 0)" stroke="rgb(60, 60, 60)" stroke-width="1px" opacity="0.25"></line><line x1="0" y1="0" x2="290" y2="0" fill="rgb(0, 0, 0)" stroke="rgb(60, 60, 60)" stroke-width="1px" opacity="0.25"></line></g></g></g><g><g><line x1="0" y1="356" x2="290" y2="356" fill="rgb(0, 0, 0)" stroke="rgb(153, 153, 153)" stroke-width="1.5px"></line></g></g><g><g><line x1="36.25" y1="0" x2="36.25" y2="178" fill="rgb(0, 0, 0)" stroke="rgb(153, 153, 153)" stroke-width="1.5px"></line></g></g><g><g><g><g><g><path stroke="rgb(255, 112, 67)" stroke-width="2px" d="M42.775,-0.7984896912866488L44.95,14.090046680674844L47.125,23.90213849043204L49.300000000000004,31.38389517766708L51.474999999999994,36.86970515279423L53.65,40.86956708875626L55.825,44.36386836397418L58,47.572276700764164L60.175,49.919432090291224L62.35,52.21826089933452L64.525,54.81022393380577L66.7,56.69410570463806L68.875,59.651622160571016L71.05,62.276289091631284L73.225,64.87016759008355L75.4,68.15457347669025L77.575,72.46645486327068L79.75,76.90659294992724L81.925,80.00534866786187L84.1,84.56544184412112L86.27499999999999,89.26071469256493L88.45,92.18833790562967L90.625,90.21978280650897L92.8,91.54448508752635L94.97500000000001,93.6964015832287L97.15,95.92790648349946L99.325,99.91477544941962L101.5,104.0122112835202L103.675,107.19153617620661L105.85,108.98513760774799L108.025,110.28865335138151L110.2,112.19334617917013L112.375,113.51646778273772L114.55000000000001,115.97199502907641L116.72500000000001,118.01063301944215L118.89999999999999,119.60870739328281L121.07499999999999,122.06896528617752L123.25,123.95792786502747L125.425,125.07644853815088L127.6,127.05988859405986L129.775,129.0678479061612L131.95000000000002,130.68659245674573L134.125,131.46527021717037L136.29999999999998,132.71090773584865L138.475,133.23529456523488L140.65,134.07376722377893L142.825,133.86167030740904L145,134.51942947632085L147.17499999999998,135.00345707849507L149.35,135.89246708462403L151.52499999999998,136.9402074236278L153.70000000000002,137.44484291426022L155.875,137.5637194845181L158.05,139.17292186099954L160.225,139.74919050978835L162.4,140.56333701400297L164.575,140.81632854812344L166.75,140.13387748165724L168.925,139.76871264316918L171.1,140.5794163676398L173.275,141.2910342962919L175.45,141.91669874855154L177.625,143.0453911058204L179.8,144.02427979899025L181.975,144.61365006323206L184.15,145.529395711157L186.325,145.78571184380846L188.5,145.90967913570404L190.67499999999998,146.4579312759781L192.85000000000002,147.69529068697355L195.025,148.64724391596832L197.20000000000002,148.46329561410738L199.375,148.33777778350344L201.54999999999998,147.87731556536576L203.725,147.99120089317455L205.89999999999998,148.2792413336342L208.07500000000002,148.95298257483876L210.25,149.19227393516204L212.425,150.3687409022349L214.6,150.8171992837726L216.775,151.3683104455077L218.95,151.2262393343212L221.125,150.26973072217473L223.3,152.21566793159585L225.475,151.65060521147214L227.65,152.24839932073095L229.825,150.71511960952841L232,150.0574896581731L234.175,150.25635819004546L236.35,149.66961798409565L238.525,152.01800736272298L240.7,153.26115056326367L242.875,150.42312153607833L245.04999999999998,149.1071939207925L247.22500000000002,148.79448320733388L249.4,148.6838504163437L251.57500000000002,147.4586822133072L253.75,149.47839040403414L255.92499999999998,150.40908906724957L258.1,151.40665514628233L260.275,152.17104447937098" style="fill: none;" fill="none"></path></g></g></g></g><g opacity="0.2"><g><g><g><path stroke="rgb(255, 112, 67)" stroke-width="2px" d="M38.425000000000004,-87.13908843994142L40.6,11.19690780639648L42.775,23.08688735961914L44.95,31.59896545410156L47.125,36.712805557250974L49.300000000000004,41.73385810852051L51.474999999999994,44.714501190185544L53.65,46.70140419006347L55.825,49.517284011840815L58,52.336389160156244L60.175,53.41887664794922L62.35,55.653993988037115L64.525,58.68970527648926L66.7,59.516237640380865L68.875,64.08442039489746L71.05,66.21143836975098L73.225,68.7598876953125L75.4,73.08034839630128L77.575,78.93362007141113L79.75,83.56639423370362L81.925,84.65331230163574L84.1,91.40543155670166L86.27499999999999,96.30353126525878L88.45,96.57973804473878L90.625,87.2669641494751L92.8,93.53153285980224L94.97500000000001,96.92427082061768L97.15,99.27516040802001L99.325,105.89507522583008L101.5,110.15836277008057L103.675,111.9605224609375L105.85,111.67553939819337L108.025,112.24392681121826L110.2,115.05038528442383L112.375,115.50115013122559L114.55000000000001,119.65528583526611L116.72500000000001,121.0685899734497L118.89999999999999,122.00581893920898L121.07499999999999,125.75935211181641L123.25,126.79137172698975L125.425,126.75422954559326L127.6,130.03504867553713L129.775,132.07978687286376L131.95000000000002,133.1147092819214L134.125,132.633286857605L136.29999999999998,134.5793640136719L138.475,134.02187480926514L140.65,135.33147621154785L142.825,133.54352493286135L145,135.5060682296753L147.17499999999998,135.72949848175048L149.35,137.22598209381104L151.52499999999998,138.5118179321289L153.70000000000002,138.2017961502075L155.875,137.7420343399048L158.05,141.58672542572023L160.225,140.6135934829712L162.4,141.7845567703247L164.575,141.19581584930418L166.75,139.110200881958L168.925,139.220965385437L171.1,141.7954719543457L173.275,142.35846118927L175.45,142.85519542694092L177.625,144.73842964172363L179.8,145.49261283874512L181.975,145.49770545959473L184.15,146.90301418304443L186.325,146.17018604278564L188.5,146.09563007354737L190.67499999999998,147.28030948638914L192.85000000000002,149.5513298034668L195.025,150.07517375946045L197.20000000000002,148.18737316131592L199.375,148.14950103759767L201.54999999999998,147.18662223815917L203.725,148.1620288848877L205.89999999999998,148.71130199432375L208.07500000000002,149.9635944366455L210.25,149.55121097564697L212.425,152.13344135284424L214.6,151.4898868560791L216.775,152.19497718811036L218.95,151.0131326675415L221.125,148.8349678039551L223.3,155.13457374572752L225.475,150.80301113128664L227.65,153.14509048461915L229.825,148.4152000427246L232,149.07104473114012L234.175,150.55466098785402L236.35,148.78950767517088L238.525,155.54059143066408L240.7,155.1258653640747L242.875,146.1660779953003L245.04999999999998,147.13330249786375L247.22500000000002,148.325417137146L249.4,148.51790122985838L251.57500000000002,145.62092990875246L253.75,152.5079526901245L255.92499999999998,151.80513706207276L258.1,152.90300426483154L260.275,153.3176284790039" style="fill: none;" fill="none"></path></g></g></g></g></g></g><g transform="translate(40, 178)" clip-path="url(#clip_1)"><clipPath id="clip_1"><rect width="290" height="22"></rect></clipPath><g><g><line x1="0" y1="0" x2="0" y2="5" style="visibility: inherit;" fill="rgb(0, 0, 0)" stroke="rgb(204, 204, 204)" stroke-width="1px"></line><line x1="36.25" y1="0" x2="36.25" y2="5" style="visibility: inherit;" fill="rgb(0, 0, 0)" stroke="rgb(204, 204, 204)" stroke-width="1px"></line><line x1="72.5" y1="0" x2="72.5" y2="5" style="visibility: inherit;" fill="rgb(0, 0, 0)" stroke="rgb(204, 204, 204)" stroke-width="1px"></line><line x1="108.75" y1="0" x2="108.75" y2="5" style="visibility: inherit;" fill="rgb(0, 0, 0)" stroke="rgb(204, 204, 204)" stroke-width="1px"></line><line x1="145" y1="0" x2="145" y2="5" style="visibility: inherit;" fill="rgb(0, 0, 0)" stroke="rgb(204, 204, 204)" stroke-width="1px"></line><line x1="181.25" y1="0" x2="181.25" y2="5" style="visibility: inherit;" fill="rgb(0, 0, 0)" stroke="rgb(204, 204, 204)" stroke-width="1px"></line><line x1="217.5" y1="0" x2="217.5" y2="5" style="visibility: inherit;" fill="rgb(0, 0, 0)" stroke="rgb(204, 204, 204)" stroke-width="1px"></line><line x1="253.75" y1="0" x2="253.75" y2="5" style="visibility: inherit;" fill="rgb(0, 0, 0)" stroke="rgb(204, 204, 204)" stroke-width="1px"></line><line x1="290" y1="0" x2="290" y2="5" style="visibility: inherit;" fill="rgb(0, 0, 0)" stroke="rgb(204, 204, 204)" stroke-width="1px"></line></g><g transform="translate(0, 8)"><text x="0" y="0" dx="0em" dy="0.95em" style="text-anchor: middle; visibility: hidden; font-family: Roboto, sans-serif; font-size: 12px; font-weight: 200;" fill="rgb(50, 49, 63)" stroke="none" stroke-width="1px">-5k</text><text x="36.25" y="0" dx="0em" dy="0.95em" style="text-anchor: middle; visibility: inherit; font-family: Roboto, sans-serif; font-size: 12px; font-weight: 200;" fill="rgb(50, 49, 63)" stroke="none" stroke-width="1px">0</text><text x="72.5" y="0" dx="0em" dy="0.95em" style="text-anchor: middle; visibility: inherit; font-family: Roboto, sans-serif; font-size: 12px; font-weight: 200;" fill="rgb(50, 49, 63)" stroke="none" stroke-width="1px">5k</text><text x="108.75" y="0" dx="0em" dy="0.95em" style="text-anchor: middle; visibility: inherit; font-family: Roboto, sans-serif; font-size: 12px; font-weight: 200;" fill="rgb(50, 49, 63)" stroke="none" stroke-width="1px">10k</text><text x="145" y="0" dx="0em" dy="0.95em" style="text-anchor: middle; visibility: inherit; font-family: Roboto, sans-serif; font-size: 12px; font-weight: 200;" fill="rgb(50, 49, 63)" stroke="none" stroke-width="1px">15k</text><text x="181.25" y="0" dx="0em" dy="0.95em" style="text-anchor: middle; visibility: inherit; font-family: Roboto, sans-serif; font-size: 12px; font-weight: 200;" fill="rgb(50, 49, 63)" stroke="none" stroke-width="1px">20k</text><text x="217.5" y="0" dx="0em" dy="0.95em" style="text-anchor: middle; visibility: inherit; font-family: Roboto, sans-serif; font-size: 12px; font-weight: 200;" fill="rgb(50, 49, 63)" stroke="none" stroke-width="1px">25k</text><text x="253.75" y="0" dx="0em" dy="0.95em" style="text-anchor: middle; visibility: inherit; font-family: Roboto, sans-serif; font-size: 12px; font-weight: 200;" fill="rgb(50, 49, 63)" stroke="none" stroke-width="1px">30k</text><text x="290" y="0" dx="0em" dy="0.95em" style="text-anchor: middle; visibility: hidden; font-family: Roboto, sans-serif; font-size: 12px; font-weight: 200;" fill="rgb(50, 49, 63)" stroke="none" stroke-width="1px">35k</text></g><line x1="0" y1="0" x2="290" y2="0" fill="rgb(0, 0, 0)" stroke="rgb(204, 204, 204)" stroke-width="1px"></line></g></g></g></g></svg>