<svg viewBox="0 0 330 200" xmlns="http://www.w3.org/2000/svg"><g><g><g><g><g><line x1="40" y1="178" x2="35" y2="178" style="visibility: inherit;" fill="rgb(0, 0, 0)" stroke="rgb(204, 204, 204)" stroke-width="1px"></line><line x1="40" y1="160.20000000000002" x2="35" y2="160.20000000000002" style="visibility: inherit;" fill="rgb(0, 0, 0)" stroke="rgb(204, 204, 204)" stroke-width="1px"></line><line x1="40" y1="142.4" x2="35" y2="142.4" style="visibility: inherit;" fill="rgb(0, 0, 0)" stroke="rgb(204, 204, 204)" stroke-width="1px"></line><line x1="40" y1="124.6" x2="35" y2="124.6" style="visibility: inherit;" fill="rgb(0, 0, 0)" stroke="rgb(204, 204, 204)" stroke-width="1px"></line><line x1="40" y1="106.8" x2="35" y2="106.8" style="visibility: inherit;" fill="rgb(0, 0, 0)" stroke="rgb(204, 204, 204)" stroke-width="1px"></line><line x1="40" y1="89" x2="35" y2="89" style="visibility: inherit;" fill="rgb(0, 0, 0)" stroke="rgb(204, 204, 204)" stroke-width="1px"></line><line x1="40" y1="71.2" x2="35" y2="71.2" style="visibility: inherit;" fill="rgb(0, 0, 0)" stroke="rgb(204, 204, 204)" stroke-width="1px"></line><line x1="40" y1="53.400000000000006" x2="35" y2="53.400000000000006" style="visibility: inherit;" fill="rgb(0, 0, 0)" stroke="rgb(204, 204, 204)" stroke-width="1px"></line><line x1="40" y1="35.599999999999994" x2="35" y2="35.599999999999994" style="visibility: inherit;" fill="rgb(0, 0, 0)" stroke="rgb(204, 204, 204)" stroke-width="1px"></line><line x1="40" y1="17.799999999999997" x2="35" y2="17.799999999999997" style="visibility: inherit;" fill="rgb(0, 0, 0)" stroke="rgb(204, 204, 204)" stroke-width="1px"></line><line x1="40" y1="0" x2="35" y2="0" style="visibility: inherit;" fill="rgb(0, 0, 0)" stroke="rgb(204, 204, 204)" stroke-width="1px"></line></g><g transform="translate(30, 0)"><text x="0" y="178" dx="0em" dy="0.3em" style="text-anchor: end; visibility: hidden; font-family: Roboto, sans-serif; font-size: 12px; font-weight: 200;" fill="rgb(50, 49, 63)" stroke="none" stroke-width="1px">4</text><text x="0" y="160.20000000000002" dx="0em" dy="0.3em" style="text-anchor: end; visibility: inherit; font-family: Roboto, sans-serif; font-size: 12px; font-weight: 200;" fill="rgb(50, 49, 63)" stroke="none" stroke-width="1px">4.5</text><text x="0" y="142.4" dx="0em" dy="0.3em" style="text-anchor: end; visibility: hidden; font-family: Roboto, sans-serif; font-size: 12px; font-weight: 200;" fill="rgb(50, 49, 63)" stroke="none" stroke-width="1px">5</text><text x="0" y="124.6" dx="0em" dy="0.3em" style="text-anchor: end; visibility: inherit; font-family: Roboto, sans-serif; font-size: 12px; font-weight: 200;" fill="rgb(50, 49, 63)" stroke="none" stroke-width="1px">5.5</text><text x="0" y="106.8" dx="0em" dy="0.3em" style="text-anchor: end; visibility: hidden; font-family: Roboto, sans-serif; font-size: 12px; font-weight: 200;" fill="rgb(50, 49, 63)" stroke="none" stroke-width="1px">6</text><text x="0" y="89" dx="0em" dy="0.3em" style="text-anchor: end; visibility: inherit; font-family: Roboto, sans-serif; font-size: 12px; font-weight: 200;" fill="rgb(50, 49, 63)" stroke="none" stroke-width="1px">6.5</text><text x="0" y="71.2" dx="0em" dy="0.3em" style="text-anchor: end; visibility: hidden; font-family: Roboto, sans-serif; font-size: 12px; font-weight: 200;" fill="rgb(50, 49, 63)" stroke="none" stroke-width="1px">7</text><text x="0" y="53.400000000000006" dx="0em" dy="0.3em" style="text-anchor: end; visibility: inherit; font-family: Roboto, sans-serif; font-size: 12px; font-weight: 200;" fill="rgb(50, 49, 63)" stroke="none" stroke-width="1px">7.5</text><text x="0" y="35.599999999999994" dx="0em" dy="0.3em" style="text-anchor: end; visibility: hidden; font-family: Roboto, sans-serif; font-size: 12px; font-weight: 200;" fill="rgb(50, 49, 63)" stroke="none" stroke-width="1px">8</text><text x="0" y="17.799999999999997" dx="0em" dy="0.3em" style="text-anchor: end; visibility: inherit; font-family: Roboto, sans-serif; font-size: 12px; font-weight: 200;" fill="rgb(50, 49, 63)" stroke="none" stroke-width="1px">8.5</text><text x="0" y="0" dx="0em" dy="0.3em" style="text-anchor: end; visibility: hidden; font-family: Roboto, sans-serif; font-size: 12px; font-weight: 200;" fill="rgb(50, 49, 63)" stroke="none" stroke-width="1px">9</text></g><line x1="40" y1="0" x2="40" y2="178" fill="rgb(0, 0, 0)" stroke="rgb(204, 204, 204)" stroke-width="1px"></line></g></g><g transform="translate(40, 0)" clip-path="url(#clip_0)"><clipPath id="clip_0"><rect width="290" height="178"></rect></clipPath><g><g><g><line x1="0" y1="0" x2="0" y2="178" fill="rgb(0, 0, 0)" stroke="rgb(60, 60, 60)" stroke-width="1px" opacity="0.25"></line><line x1="29" y1="0" x2="29" y2="178" fill="rgb(0, 0, 0)" stroke="rgb(60, 60, 60)" stroke-width="1px" opacity="0.25"></line><line x1="58" y1="0" x2="58" y2="178" fill="rgb(0, 0, 0)" stroke="rgb(60, 60, 60)" stroke-width="1px" opacity="0.25"></line><line x1="87" y1="0" x2="87" y2="178" fill="rgb(0, 0, 0)" stroke="rgb(60, 60, 60)" stroke-width="1px" opacity="0.25"></line><line x1="116" y1="0" x2="116" y2="178" fill="rgb(0, 0, 0)" stroke="rgb(60, 60, 60)" stroke-width="1px" opacity="0.25"></line><line x1="145" y1="0" x2="145" y2="178" fill="rgb(0, 0, 0)" stroke="rgb(60, 60, 60)" stroke-width="1px" opacity="0.25"></line><line x1="174" y1="0" x2="174" y2="178" fill="rgb(0, 0, 0)" stroke="rgb(60, 60, 60)" stroke-width="1px" opacity="0.25"></line><line x1="203" y1="0" x2="203" y2="178" fill="rgb(0, 0, 0)" stroke="rgb(60, 60, 60)" stroke-width="1px" opacity="0.25"></line><line x1="232" y1="0" x2="232" y2="178" fill="rgb(0, 0, 0)" stroke="rgb(60, 60, 60)" stroke-width="1px" opacity="0.25"></line><line x1="261" y1="0" x2="261" y2="178" fill="rgb(0, 0, 0)" stroke="rgb(60, 60, 60)" stroke-width="1px" opacity="0.25"></line><line x1="290" y1="0" x2="290" y2="178" fill="rgb(0, 0, 0)" stroke="rgb(60, 60, 60)" stroke-width="1px" opacity="0.25"></line></g><g><line x1="0" y1="178" x2="290" y2="178" fill="rgb(0, 0, 0)" stroke="rgb(60, 60, 60)" stroke-width="1px" opacity="0.25"></line><line x1="0" y1="160.20000000000002" x2="290" y2="160.20000000000002" fill="rgb(0, 0, 0)" stroke="rgb(60, 60, 60)" stroke-width="1px" opacity="0.25"></line><line x1="0" y1="142.4" x2="290" y2="142.4" fill="rgb(0, 0, 0)" stroke="rgb(60, 60, 60)" stroke-width="1px" opacity="0.25"></line><line x1="0" y1="124.6" x2="290" y2="124.6" fill="rgb(0, 0, 0)" stroke="rgb(60, 60, 60)" stroke-width="1px" opacity="0.25"></line><line x1="0" y1="106.8" x2="290" y2="106.8" fill="rgb(0, 0, 0)" stroke="rgb(60, 60, 60)" stroke-width="1px" opacity="0.25"></line><line x1="0" y1="89" x2="290" y2="89" fill="rgb(0, 0, 0)" stroke="rgb(60, 60, 60)" stroke-width="1px" opacity="0.25"></line><line x1="0" y1="71.2" x2="290" y2="71.2" fill="rgb(0, 0, 0)" stroke="rgb(60, 60, 60)" stroke-width="1px" opacity="0.25"></line><line x1="0" y1="53.400000000000006" x2="290" y2="53.400000000000006" fill="rgb(0, 0, 0)" stroke="rgb(60, 60, 60)" stroke-width="1px" opacity="0.25"></line><line x1="0" y1="35.599999999999994" x2="290" y2="35.599999999999994" fill="rgb(0, 0, 0)" stroke="rgb(60, 60, 60)" stroke-width="1px" opacity="0.25"></line><line x1="0" y1="17.799999999999997" x2="290" y2="17.799999999999997" fill="rgb(0, 0, 0)" stroke="rgb(60, 60, 60)" stroke-width="1px" opacity="0.25"></line><line x1="0" y1="0" x2="290" y2="0" fill="rgb(0, 0, 0)" stroke="rgb(60, 60, 60)" stroke-width="1px" opacity="0.25"></line></g></g></g><g><g><line x1="0" y1="320.40000000000003" x2="290" y2="320.40000000000003" fill="rgb(0, 0, 0)" stroke="rgb(153, 153, 153)" stroke-width="1.5px"></line></g></g><g><g><line x1="29" y1="0" x2="29" y2="178" fill="rgb(0, 0, 0)" stroke="rgb(153, 153, 153)" stroke-width="1.5px"></line></g></g><g><g><g><g><g><path stroke="rgb(255, 112, 67)" stroke-width="2px" d="M34.22,-4.216104822332932L35.089999999999996,1.2697051527942225L35.96,5.269567088756272L36.83,8.763868363974185L37.7,11.972276700764171L38.57,14.319432090291235L39.440000000000005,16.618260899334526L40.31,19.210223933805786L41.18,21.09410570463807L42.05,24.051622160571007L42.919999999999995,26.676289091631293L43.79,29.270167590083563L44.66,32.55457347669024L45.53,36.8664548632707L46.4,41.306592949927236L47.27,44.40534866786186L48.14,48.965441844121116L49.010000000000005,53.66071469256494L49.879999999999995,56.58833790562967L50.75,54.61978280650899L51.62,55.94448508752634L52.489999999999995,58.09640158322869L53.36,60.32790648349946L54.23,64.31477544941963L55.1,68.4122112835202L55.97,71.59153617620662L56.84,73.38513760774798L57.71,74.6886533513815L58.580000000000005,76.59334617917015L59.449999999999996,77.91646778273773L60.32,80.37199502907643L61.19,82.41063301944216L62.06,84.00870739328283L62.93,86.4689652861775L63.8,88.35792786502746L64.67,89.4764485381509L65.54,91.45988859405986L66.41,93.46784790616121L67.28,95.08659245674573L68.14999999999999,95.86527021717039L69.02,97.11090773584866L69.89,97.63529456523487L70.76,98.4737672237789L71.63,98.26167030740903L72.5,98.91942947632083L73.37,99.40345707849507L74.24,100.29246708462404L75.11,101.3402074236278L75.98,101.84484291426023L76.85000000000001,101.9637194845181L77.72,103.57292186099954L78.59,104.14919050978833L79.46000000000001,104.96333701400297L80.33000000000001,105.21632854812344L81.2,104.53387748165726L82.07,104.16871264316919L82.94,104.97941636763979L83.80999999999999,105.69103429629189L84.67999999999999,106.31669874855153L85.55,107.4453911058204L86.42,108.42427979899026L87.28999999999999,109.01365006323208L88.16,109.929395711157L89.03,110.18571184380848L89.9,110.30967913570403L90.77,110.8579312759781L91.64,112.09529068697356L92.51,113.04724391596831L93.38,112.86329561410736L94.25,112.73777778350346L95.12,112.27731556536575L95.99000000000001,112.39120089317454L96.86,112.67924133363421L97.73,113.35298257483873L98.60000000000001,113.59227393516203L99.47000000000001,114.76874090223491L100.33999999999999,115.2171992837726L101.21,115.76831044550768L102.08,115.62623933432121L102.94999999999999,114.66973072217475L103.82,116.61566793159587L104.69,116.05060521147216L105.56,116.64839932073096L106.42999999999999,115.11511960952842L107.3,114.45748965817309L108.17,114.65635819004547L109.04,114.06961798409563L109.91,116.41800736272297L110.78,117.66115056326367L111.65,114.82312153607832L112.52000000000001,113.50719392079249L113.39,113.1944832073339L114.26,113.0838504163437L115.13000000000001,111.8586822133072L116,113.87839040403415L116.87,114.80908906724957L117.74000000000001,115.80665514628235L118.61,116.57104447937098L119.47999999999999,117.37997570190483L120.35,115.95581211181673L121.22,117.0506537862551L122.08999999999999,117.2929990832765L122.96,117.97888950733896L123.83,119.27910647051667L124.7,119.06282124314986L125.57,119.79679934379033L126.44,120.62053154108861L127.31,120.68609440683088L128.18,120.45214851116395L129.05,120.62162281641515L129.92000000000002,121.06554510098192L130.79,121.76728360355789L131.66,121.85673597634373L132.53,121.28898543346253L133.4,120.77967429535582L134.27,121.21278924213047L135.14000000000001,120.91173657933587L136.01,121.25245355343648L136.88,121.63653782114878L137.75,122.19988282147347L138.62,122.46651164784014L139.49,122.98154646929493L140.35999999999999,124.02395229563948L141.23,124.70470844403407L142.1,124.80514684376419L142.97,124.75763644610227L143.84,125.0363306774758L144.71,125.3856864985265L145.58,125.63924591400848L146.45,125.25100016986505L147.32,126.38057324645028L148.19,126.68189771984284L149.06,127.29191206940568L149.93,127.19105636029576L150.8,127.13061762660226L151.67000000000002,126.93469732767032L152.54000000000002,127.02914755919984L153.41,126.70289335119374L154.28,126.89729669492037L155.15,127.29790323973054L156.02,127.88257586717818L156.89000000000001,128.19447861051685L157.76000000000002,128.18281112871244L158.63000000000002,128.70874322629973L159.5,128.56082645640976L160.37,128.9417586301935L161.24,128.52232606739832L162.11,129.02943308550735L162.98000000000002,129.02179803489815L163.85,129.51746854567034L164.72,129.258281344077L165.58999999999997,128.4053040420419L166.45999999999998,128.56829671355524L167.32999999999998,128.2448103493001L168.2,128.65559287461912L169.07,129.3343783688144L169.94,130.1674199290035L170.81,131.33093558472143L171.67999999999998,131.65856020642372L172.54999999999998,131.31492334004076L173.42,131.34317832348248L174.29,130.82340302680436L175.16,130.8045468820006L176.03,131.36008942680778L176.9,131.86914432380925L177.77,131.7561132117172L178.64,131.67486360574128L179.51,132.20959917845943L180.38,132.37556373681198L181.25,132.86307795766334L182.12,133.2229856295785L182.99,133.2794089772344L183.86,133.49116520750766L184.73,133.4329561893239L185.6,133.67411873007381L186.47,133.9428181771312L187.34,133.83996168874944L188.21,133.66215641083267L189.08,133.8085085986969L189.95000000000002,134.0551757311176L190.82000000000002,133.91052685590685L191.69,134.3623466921574L192.56,133.9843127699331L193.43,134.3522018892548L194.3,134.06005412000306L195.17000000000002,134.24174459968737L196.04000000000002,134.6837687599345L196.91000000000003,134.72607584641483L197.78,135.08632368472877L198.65,134.9882644714574L199.51999999999998,135.09810333619475L200.39,134.28272522193168L201.26,134.24497616709456L202.13,133.71538688433876L203,132.99810023363057L203.86999999999998,134.05713650736587L204.73999999999998,134.80878545971737L205.60999999999999,135.0683669789554L206.48,135.0147684326125L207.35,135.48511517944053L208.22,135.7898665624983L209.09,135.8102831577138L209.95999999999998,136.26517692893003L210.82999999999998,136.51407602124962L211.7,136.18788012202717L212.57,136.30314517221532L213.44,136.4169834625821L214.31,136.40505389285687L215.18,136.4010060448206L216.05,136.14135245196562L216.92,136.24118270225847L217.79,136.98110869972422L218.66,136.942249890855L219.53,136.57357342999643L220.4,135.93596092201153L221.27,136.92572572312878L222.14000000000001,136.82417025138213L223.01,136.5233202050285L223.88,135.89984722555616L224.75,136.16928058875166L225.62,136.55828199155667L226.49,137.08172456602776L227.36,137.5015536605151L228.23000000000002,137.3659026705522L229.10000000000002,136.8895963050901L229.97,137.12816230881091L230.84,137.30666507022306L231.71,137.11703668556646L232.58,138.06822852684283L233.45000000000002,138.34204383607639L234.32000000000002,137.98140603492217L235.19000000000003,138.0608231436584L236.05999999999997,138.1639218647107L236.92999999999998,137.9792914580598L237.79999999999998,137.76236941524118L238.67,138.6028221923576L239.54,138.69264279356395L240.41,138.57363049120184L241.28,138.68802907902287L242.14999999999998,138.9179820897477L243.01999999999998,139.2410604788242L243.89,138.30698026617637L244.76,138.24881393790403L245.63,139.15814715790845L246.5,139.566368549872L247.37,139.40688617814098L248.24,138.84081513278792L249.10999999999999,139.26632860298815L249.98,139.14906733391206L250.85,139.30909394954156L251.72,139.56473302682943L252.59,139.79979532146874L253.46,140.2623943590189L254.33,139.26053804058225L255.2,138.55186130701534L256.07,138.73201850234886L256.94,139.21252599703922L257.81,140.19682200996672L258.68,140.48086458354348L259.55,140.78893348401283L260.42,140.70521037116941L261.29,140.24836128434714L262.16,139.7369968121122L263.03000000000003,139.3113299384636L263.90000000000003,139.56431596844925L264.77,138.87826960426293L265.64,138.888168198715L266.51,139.3703217261138L267.38,139.72049442726984L268.25,140.1596030223287L269.12,140.34579614567264L269.99,140.51849445681276L270.86,140.03392931568922L271.73,139.43737495391548" style="fill: none;" fill="none"></path></g></g></g></g><g opacity="0.2"><g><g><g><path stroke="rgb(255, 112, 67)" stroke-width="2px" d="M32.480000000000004,-4.001034545898453L33.35,1.1128055572509805L34.22,6.133858108520515L35.089999999999996,9.114501190185551L35.96,11.101404190063477L36.83,13.91728401184082L37.7,16.73638916015625L38.57,17.818876647949228L39.440000000000005,20.053993988037107L40.31,23.089705276489255L41.18,23.916237640380857L42.05,28.48442039489745L42.919999999999995,30.611438369750967L43.79,33.159887695312506L44.66,37.48034839630127L45.53,43.33362007141113L46.4,47.96639423370361L47.27,49.05331230163574L48.14,55.80543155670166L49.010000000000005,60.70353126525879L49.879999999999995,60.97973804473877L50.75,51.66696414947509L51.62,57.931532859802246L52.489999999999995,61.32427082061767L53.36,63.67516040802002L54.23,70.29507522583008L55.1,74.55836277008056L55.97,76.3605224609375L56.84,76.07553939819336L57.71,76.64392681121826L58.580000000000005,79.45038528442383L59.449999999999996,79.90115013122559L60.32,84.05528583526612L61.19,85.46858997344971L62.06,86.40581893920898L62.93,90.1593521118164L63.8,91.19137172698974L64.67,91.15422954559327L65.54,94.4350486755371L66.41,96.47978687286377L67.28,97.51470928192138L68.14999999999999,97.03328685760498L69.02,98.97936401367187L69.89,98.42187480926513L70.76,99.73147621154786L71.63,97.94352493286132L72.5,99.9060682296753L73.37,100.12949848175049L74.24,101.62598209381103L75.11,102.91181793212891L75.98,102.60179615020752L76.85000000000001,102.14203433990478L77.72,105.98672542572021L78.59,105.01359348297119L79.46000000000001,106.1845567703247L80.33000000000001,105.5958158493042L81.2,103.51020088195801L82.07,103.62096538543702L82.94,106.1954719543457L83.80999999999999,106.75846118927002L84.67999999999999,107.25519542694092L85.55,109.13842964172363L86.42,109.89261283874512L87.28999999999999,109.89770545959473L88.16,111.30301418304444L89.03,110.57018604278565L89.9,110.49563007354736L90.77,111.68030948638916L91.64,113.95132980346679L92.51,114.47517375946045L93.38,112.58737316131592L94.25,112.54950103759765L95.12,111.58662223815918L95.99000000000001,112.5620288848877L96.86,113.11130199432372L97.73,114.36359443664551L98.60000000000001,113.95121097564697L99.47000000000001,116.53344135284424L100.33999999999999,115.8898868560791L101.21,116.59497718811035L102.08,115.4131326675415L102.94999999999999,113.23496780395507L103.82,119.53457374572754L104.69,115.20301113128662L105.56,117.54509048461914L106.42999999999999,112.81520004272461L107.3,113.47104473114014L108.17,114.954660987854L109.04,113.1895076751709L109.91,119.94059143066406L110.78,119.5258653640747L111.65,110.56607799530029L112.52000000000001,111.53330249786377L113.39,112.725417137146L114.26,112.9179012298584L115.13000000000001,110.02092990875244L116,116.90795269012452L116.87,116.20513706207275L117.74000000000001,117.30300426483154L118.61,117.7176284790039L119.47999999999999,118.59337253570557L120.35,113.81956672668457L121.22,118.6929162979126L122.08999999999999,117.6565170288086L122.96,119.00772514343262L123.83,121.2294319152832L124.7,118.7383934020996L125.57,120.89776649475098L126.44,121.85612983703614L127.31,120.78443870544433L128.18,120.10122966766357L129.05,120.87583427429199L129.92000000000002,121.73142852783204L130.79,122.81989135742188L131.66,121.99091453552246L132.53,120.43735961914062L133.4,120.0157075881958L134.27,121.86246166229247L135.14000000000001,120.46015758514405L136.01,121.7635290145874L136.88,122.21266422271728L137.75,123.04490032196045L138.62,122.86645488739013L139.49,123.75409870147705L140.35999999999999,125.58756103515626L141.23,125.72584266662598L142.1,124.95580444335937L142.97,124.68637084960938L143.84,125.45437202453613L144.71,125.90972023010254L145.58,126.01958503723145L146.45,124.6686315536499L147.32,128.0749328613281L148.19,127.13388442993164L149.06,128.20693359375L149.93,127.03977279663086L150.8,127.039959526062L151.67000000000002,126.64081687927246L152.54000000000002,127.17082290649414L153.41,126.21351203918456L154.28,127.18890171051025L155.15,127.8988130569458L156.02,128.75958480834962L156.89000000000001,128.66233272552492L157.76000000000002,128.16530990600586L158.63000000000002,129.49764137268065L159.5,128.33895130157472L160.37,129.51315689086914L161.24,127.89317722320557L162.11,129.79009361267092L162.98000000000002,129.01034545898438L163.85,130.26097431182862L164.72,128.86950054168702L165.58999999999997,127.12583808898925L166.45999999999998,128.8127857208252L167.32999999999998,127.75958080291748L168.2,129.27176666259766L169.07,130.35255661010743L169.94,131.4169822692871L170.81,133.07620906829834L171.67999999999998,132.14999713897706L172.54999999999998,130.7994680404663L173.42,131.385560798645L174.29,130.0437400817871L175.16,130.77626266479493L176.03,132.19340324401855L176.9,132.63272666931152L177.77,131.5865665435791L178.64,131.55298919677736L179.51,133.01170253753662L180.38,132.6245105743408L181.25,133.59434928894044L182.12,133.7628471374512L182.99,133.36404399871824L183.86,133.80879955291746L184.73,133.34564266204833L185.6,134.03586254119872L186.47,134.3458673477173L187.34,133.68567695617676L188.21,133.3954484939575L189.08,134.02803688049315L189.95000000000002,134.42517642974852L190.82000000000002,133.69355354309081L191.69,135.04007644653322L192.56,133.41726188659666L193.43,134.9040355682373L194.3,133.62183246612548L195.17000000000002,134.51428031921387L196.04000000000002,135.34680500030518L196.91000000000003,134.78953647613525L197.78,135.6266954421997L198.65,134.8411756515503L199.51999999999998,135.2628616333008L200.39,133.0596580505371L201.26,134.18835258483887L202.13,132.92100296020507L203,131.92217025756835L203.86999999999998,135.64569091796875L204.73999999999998,135.93625888824462L205.60999999999999,135.4577392578125L206.48,134.93437061309814L207.35,136.1906352996826L208.22,136.24699363708496L209.09,135.8409080505371L209.95999999999998,136.9475175857544L210.82999999999998,136.88742465972902L211.7,135.69858627319334L212.57,136.47604274749756L213.44,136.58774089813232L214.31,136.38715953826906L215.18,136.3949342727661L216.05,135.7518720626831L216.92,136.39092807769774L217.79,138.09099769592285L218.66,136.88396167755127L219.53,136.0205587387085L220.4,134.97954216003419L221.27,138.4103729248047L222.14000000000001,136.67183704376222L223.01,136.07204513549803L223.88,134.96463775634766L224.75,136.57343063354492L225.62,137.14178409576417L226.49,137.86688842773438L227.36,138.1312973022461L228.23000000000002,137.16242618560793L229.10000000000002,136.175136756897L229.97,137.48601131439207L230.84,137.57441921234133L231.71,136.83259410858156L232.58,139.49501628875734L233.45000000000002,138.75276679992677L234.32000000000002,137.4404493331909L235.19000000000003,138.1799488067627L236.05999999999997,138.31856994628905L236.92999999999998,137.7023458480835L237.79999999999998,137.4369863510132L238.67,139.8635013580322L239.54,138.82737369537355L240.41,138.3951120376587L241.28,138.8596269607544L242.14999999999998,139.26291160583494L243.01999999999998,139.72567806243896L243.89,136.9058599472046L244.76,138.1615644454956L245.63,140.52214698791502L246.5,140.1787006378174L247.37,139.16766262054443L248.24,137.99170856475828L249.10999999999999,139.90459880828857L249.98,138.97317543029786L250.85,139.54913387298583L251.72,139.94819164276123L252.59,140.15238876342775L253.46,140.95629291534422L254.33,137.75775356292726L255.2,137.48884620666504L256.07,139.0022542953491L256.94,139.9332872390747L257.81,141.6732660293579L258.68,140.9069284439087L259.55,141.2510368347168L260.42,140.5796257019043L261.29,139.5630876541138L262.16,138.96995010375977L263.03000000000003,138.67282962799072L263.90000000000003,139.94379501342772L264.77,137.84920005798338L265.64,138.90301609039307L266.51,140.09355201721192L267.38,140.24575347900392L268.25,140.818265914917L269.12,140.62508583068848L269.99,140.77754192352293L270.86,139.3070816040039L271.73,138.54254341125488" style="fill: none;" fill="none"></path></g></g></g></g></g></g><g transform="translate(40, 178)" clip-path="url(#clip_1)"><clipPath id="clip_1"><rect width="290" height="22"></rect></clipPath><g><g><line x1="0" y1="0" x2="0" y2="5" style="visibility: inherit;" fill="rgb(0, 0, 0)" stroke="rgb(204, 204, 204)" stroke-width="1px"></line><line x1="29" y1="0" x2="29" y2="5" style="visibility: inherit;" fill="rgb(0, 0, 0)" stroke="rgb(204, 204, 204)" stroke-width="1px"></line><line x1="58" y1="0" x2="58" y2="5" style="visibility: inherit;" fill="rgb(0, 0, 0)" stroke="rgb(204, 204, 204)" stroke-width="1px"></line><line x1="87" y1="0" x2="87" y2="5" style="visibility: inherit;" fill="rgb(0, 0, 0)" stroke="rgb(204, 204, 204)" stroke-width="1px"></line><line x1="116" y1="0" x2="116" y2="5" style="visibility: inherit;" fill="rgb(0, 0, 0)" stroke="rgb(204, 204, 204)" stroke-width="1px"></line><line x1="145" y1="0" x2="145" y2="5" style="visibility: inherit;" fill="rgb(0, 0, 0)" stroke="rgb(204, 204, 204)" stroke-width="1px"></line><line x1="174" y1="0" x2="174" y2="5" style="visibility: inherit;" fill="rgb(0, 0, 0)" stroke="rgb(204, 204, 204)" stroke-width="1px"></line><line x1="203" y1="0" x2="203" y2="5" style="visibility: inherit;" fill="rgb(0, 0, 0)" stroke="rgb(204, 204, 204)" stroke-width="1px"></line><line x1="232" y1="0" x2="232" y2="5" style="visibility: inherit;" fill="rgb(0, 0, 0)" stroke="rgb(204, 204, 204)" stroke-width="1px"></line><line x1="261" y1="0" x2="261" y2="5" style="visibility: inherit;" fill="rgb(0, 0, 0)" stroke="rgb(204, 204, 204)" stroke-width="1px"></line><line x1="290" y1="0" x2="290" y2="5" style="visibility: inherit;" fill="rgb(0, 0, 0)" stroke="rgb(204, 204, 204)" stroke-width="1px"></line></g><g transform="translate(0, 8)"><text x="0" y="0" dx="0em" dy="0.95em" style="text-anchor: middle; visibility: hidden; font-family: Roboto, sans-serif; font-size: 12px; font-weight: 200;" fill="rgb(50, 49, 63)" stroke="none" stroke-width="1px">-10k</text><text x="29" y="0" dx="0em" dy="0.95em" style="text-anchor: middle; visibility: inherit; font-family: Roboto, sans-serif; font-size: 12px; font-weight: 200;" fill="rgb(50, 49, 63)" stroke="none" stroke-width="1px">0</text><text x="58" y="0" dx="0em" dy="0.95em" style="text-anchor: middle; visibility: inherit; font-family: Roboto, sans-serif; font-size: 12px; font-weight: 200;" fill="rgb(50, 49, 63)" stroke="none" stroke-width="1px">10k</text><text x="87" y="0" dx="0em" dy="0.95em" style="text-anchor: middle; visibility: inherit; font-family: Roboto, sans-serif; font-size: 12px; font-weight: 200;" fill="rgb(50, 49, 63)" stroke="none" stroke-width="1px">20k</text><text x="116" y="0" dx="0em" dy="0.95em" style="text-anchor: middle; visibility: inherit; font-family: Roboto, sans-serif; font-size: 12px; font-weight: 200;" fill="rgb(50, 49, 63)" stroke="none" stroke-width="1px">30k</text><text x="145" y="0" dx="0em" dy="0.95em" style="text-anchor: middle; visibility: inherit; font-family: Roboto, sans-serif; font-size: 12px; font-weight: 200;" fill="rgb(50, 49, 63)" stroke="none" stroke-width="1px">40k</text><text x="174" y="0" dx="0em" dy="0.95em" style="text-anchor: middle; visibility: inherit; font-family: Roboto, sans-serif; font-size: 12px; font-weight: 200;" fill="rgb(50, 49, 63)" stroke="none" stroke-width="1px">50k</text><text x="203" y="0" dx="0em" dy="0.95em" style="text-anchor: middle; visibility: inherit; font-family: Roboto, sans-serif; font-size: 12px; font-weight: 200;" fill="rgb(50, 49, 63)" stroke="none" stroke-width="1px">60k</text><text x="232" y="0" dx="0em" dy="0.95em" style="text-anchor: middle; visibility: inherit; font-family: Roboto, sans-serif; font-size: 12px; font-weight: 200;" fill="rgb(50, 49, 63)" stroke="none" stroke-width="1px">70k</text><text x="261" y="0" dx="0em" dy="0.95em" style="text-anchor: middle; visibility: inherit; font-family: Roboto, sans-serif; font-size: 12px; font-weight: 200;" fill="rgb(50, 49, 63)" stroke="none" stroke-width="1px">80k</text><text x="290" y="0" dx="0em" dy="0.95em" style="text-anchor: middle; visibility: hidden; font-family: Roboto, sans-serif; font-size: 12px; font-weight: 200;" fill="rgb(50, 49, 63)" stroke="none" stroke-width="1px">90k</text></g><line x1="0" y1="0" x2="290" y2="0" fill="rgb(0, 0, 0)" stroke="rgb(204, 204, 204)" stroke-width="1px"></line></g></g></g></g></svg>