<svg viewBox="0 0 330 200" xmlns="http://www.w3.org/2000/svg"><g><g><g><g><g><line x1="40" y1="178" x2="35" y2="178" style="visibility: inherit;" fill="rgb(0, 0, 0)" stroke="rgb(204, 204, 204)" stroke-width="1px"></line><line x1="40" y1="158.2222222222222" x2="35" y2="158.2222222222222" style="visibility: inherit;" fill="rgb(0, 0, 0)" stroke="rgb(204, 204, 204)" stroke-width="1px"></line><line x1="40" y1="138.44444444444446" x2="35" y2="138.44444444444446" style="visibility: inherit;" fill="rgb(0, 0, 0)" stroke="rgb(204, 204, 204)" stroke-width="1px"></line><line x1="40" y1="118.66666666666669" x2="35" y2="118.66666666666669" style="visibility: inherit;" fill="rgb(0, 0, 0)" stroke="rgb(204, 204, 204)" stroke-width="1px"></line><line x1="40" y1="98.8888888888889" x2="35" y2="98.8888888888889" style="visibility: inherit;" fill="rgb(0, 0, 0)" stroke="rgb(204, 204, 204)" stroke-width="1px"></line><line x1="40" y1="79.1111111111111" x2="35" y2="79.1111111111111" style="visibility: inherit;" fill="rgb(0, 0, 0)" stroke="rgb(204, 204, 204)" stroke-width="1px"></line><line x1="40" y1="59.33333333333334" x2="35" y2="59.33333333333334" style="visibility: inherit;" fill="rgb(0, 0, 0)" stroke="rgb(204, 204, 204)" stroke-width="1px"></line><line x1="40" y1="39.55555555555555" x2="35" y2="39.55555555555555" style="visibility: inherit;" fill="rgb(0, 0, 0)" stroke="rgb(204, 204, 204)" stroke-width="1px"></line><line x1="40" y1="19.777777777777786" x2="35" y2="19.777777777777786" style="visibility: inherit;" fill="rgb(0, 0, 0)" stroke="rgb(204, 204, 204)" stroke-width="1px"></line><line x1="40" y1="0" x2="35" y2="0" style="visibility: inherit;" fill="rgb(0, 0, 0)" stroke="rgb(204, 204, 204)" stroke-width="1px"></line></g><g transform="translate(30, 0)"><text x="0" y="178" dx="0em" dy="0.3em" style="text-anchor: end; visibility: hidden; font-family: Roboto, sans-serif; font-size: 12px; font-weight: 200;" fill="rgb(50, 49, 63)" stroke="none" stroke-width="1px">4.5</text><text x="0" y="158.2222222222222" dx="0em" dy="0.3em" style="text-anchor: end; visibility: inherit; font-family: Roboto, sans-serif; font-size: 12px; font-weight: 200;" fill="rgb(50, 49, 63)" stroke="none" stroke-width="1px">5</text><text x="0" y="138.44444444444446" dx="0em" dy="0.3em" style="text-anchor: end; visibility: hidden; font-family: Roboto, sans-serif; font-size: 12px; font-weight: 200;" fill="rgb(50, 49, 63)" stroke="none" stroke-width="1px">5.5</text><text x="0" y="118.66666666666669" dx="0em" dy="0.3em" style="text-anchor: end; visibility: inherit; font-family: Roboto, sans-serif; font-size: 12px; font-weight: 200;" fill="rgb(50, 49, 63)" stroke="none" stroke-width="1px">6</text><text x="0" y="98.8888888888889" dx="0em" dy="0.3em" style="text-anchor: end; visibility: hidden; font-family: Roboto, sans-serif; font-size: 12px; font-weight: 200;" fill="rgb(50, 49, 63)" stroke="none" stroke-width="1px">6.5</text><text x="0" y="79.1111111111111" dx="0em" dy="0.3em" style="text-anchor: end; visibility: inherit; font-family: Roboto, sans-serif; font-size: 12px; font-weight: 200;" fill="rgb(50, 49, 63)" stroke="none" stroke-width="1px">7</text><text x="0" y="59.33333333333334" dx="0em" dy="0.3em" style="text-anchor: end; visibility: hidden; font-family: Roboto, sans-serif; font-size: 12px; font-weight: 200;" fill="rgb(50, 49, 63)" stroke="none" stroke-width="1px">7.5</text><text x="0" y="39.55555555555555" dx="0em" dy="0.3em" style="text-anchor: end; visibility: inherit; font-family: Roboto, sans-serif; font-size: 12px; font-weight: 200;" fill="rgb(50, 49, 63)" stroke="none" stroke-width="1px">8</text><text x="0" y="19.777777777777786" dx="0em" dy="0.3em" style="text-anchor: end; visibility: hidden; font-family: Roboto, sans-serif; font-size: 12px; font-weight: 200;" fill="rgb(50, 49, 63)" stroke="none" stroke-width="1px">8.5</text><text x="0" y="0" dx="0em" dy="0.3em" style="text-anchor: end; visibility: hidden; font-family: Roboto, sans-serif; font-size: 12px; font-weight: 200;" fill="rgb(50, 49, 63)" stroke="none" stroke-width="1px">9</text></g><line x1="40" y1="0" x2="40" y2="178" fill="rgb(0, 0, 0)" stroke="rgb(204, 204, 204)" stroke-width="1px"></line></g></g><g transform="translate(40, 0)" clip-path="url(#clip_0)"><clipPath id="clip_0"><rect width="290" height="178"></rect></clipPath><g><g><g><line x1="0" y1="0" x2="0" y2="178" fill="rgb(0, 0, 0)" stroke="rgb(60, 60, 60)" stroke-width="1px" opacity="0.25"></line><line x1="22.30769230769231" y1="0" x2="22.30769230769231" y2="178" fill="rgb(0, 0, 0)" stroke="rgb(60, 60, 60)" stroke-width="1px" opacity="0.25"></line><line x1="44.61538461538462" y1="0" x2="44.61538461538462" y2="178" fill="rgb(0, 0, 0)" stroke="rgb(60, 60, 60)" stroke-width="1px" opacity="0.25"></line><line x1="66.92307692307692" y1="0" x2="66.92307692307692" y2="178" fill="rgb(0, 0, 0)" stroke="rgb(60, 60, 60)" stroke-width="1px" opacity="0.25"></line><line x1="89.23076923076924" y1="0" x2="89.23076923076924" y2="178" fill="rgb(0, 0, 0)" stroke="rgb(60, 60, 60)" stroke-width="1px" opacity="0.25"></line><line x1="111.53846153846155" y1="0" x2="111.53846153846155" y2="178" fill="rgb(0, 0, 0)" stroke="rgb(60, 60, 60)" stroke-width="1px" opacity="0.25"></line><line x1="133.84615384615384" y1="0" x2="133.84615384615384" y2="178" fill="rgb(0, 0, 0)" stroke="rgb(60, 60, 60)" stroke-width="1px" opacity="0.25"></line><line x1="156.15384615384616" y1="0" x2="156.15384615384616" y2="178" fill="rgb(0, 0, 0)" stroke="rgb(60, 60, 60)" stroke-width="1px" opacity="0.25"></line><line x1="178.46153846153848" y1="0" x2="178.46153846153848" y2="178" fill="rgb(0, 0, 0)" stroke="rgb(60, 60, 60)" stroke-width="1px" opacity="0.25"></line><line x1="200.76923076923077" y1="0" x2="200.76923076923077" y2="178" fill="rgb(0, 0, 0)" stroke="rgb(60, 60, 60)" stroke-width="1px" opacity="0.25"></line><line x1="223.0769230769231" y1="0" x2="223.0769230769231" y2="178" fill="rgb(0, 0, 0)" stroke="rgb(60, 60, 60)" stroke-width="1px" opacity="0.25"></line><line x1="245.3846153846154" y1="0" x2="245.3846153846154" y2="178" fill="rgb(0, 0, 0)" stroke="rgb(60, 60, 60)" stroke-width="1px" opacity="0.25"></line><line x1="267.6923076923077" y1="0" x2="267.6923076923077" y2="178" fill="rgb(0, 0, 0)" stroke="rgb(60, 60, 60)" stroke-width="1px" opacity="0.25"></line><line x1="290" y1="0" x2="290" y2="178" fill="rgb(0, 0, 0)" stroke="rgb(60, 60, 60)" stroke-width="1px" opacity="0.25"></line></g><g><line x1="0" y1="178" x2="290" y2="178" fill="rgb(0, 0, 0)" stroke="rgb(60, 60, 60)" stroke-width="1px" opacity="0.25"></line><line x1="0" y1="158.2222222222222" x2="290" y2="158.2222222222222" fill="rgb(0, 0, 0)" stroke="rgb(60, 60, 60)" stroke-width="1px" opacity="0.25"></line><line x1="0" y1="138.44444444444446" x2="290" y2="138.44444444444446" fill="rgb(0, 0, 0)" stroke="rgb(60, 60, 60)" stroke-width="1px" opacity="0.25"></line><line x1="0" y1="118.66666666666669" x2="290" y2="118.66666666666669" fill="rgb(0, 0, 0)" stroke="rgb(60, 60, 60)" stroke-width="1px" opacity="0.25"></line><line x1="0" y1="98.8888888888889" x2="290" y2="98.8888888888889" fill="rgb(0, 0, 0)" stroke="rgb(60, 60, 60)" stroke-width="1px" opacity="0.25"></line><line x1="0" y1="79.1111111111111" x2="290" y2="79.1111111111111" fill="rgb(0, 0, 0)" stroke="rgb(60, 60, 60)" stroke-width="1px" opacity="0.25"></line><line x1="0" y1="59.33333333333334" x2="290" y2="59.33333333333334" fill="rgb(0, 0, 0)" stroke="rgb(60, 60, 60)" stroke-width="1px" opacity="0.25"></line><line x1="0" y1="39.55555555555555" x2="290" y2="39.55555555555555" fill="rgb(0, 0, 0)" stroke="rgb(60, 60, 60)" stroke-width="1px" opacity="0.25"></line><line x1="0" y1="19.777777777777786" x2="290" y2="19.777777777777786" fill="rgb(0, 0, 0)" stroke="rgb(60, 60, 60)" stroke-width="1px" opacity="0.25"></line><line x1="0" y1="0" x2="290" y2="0" fill="rgb(0, 0, 0)" stroke="rgb(60, 60, 60)" stroke-width="1px" opacity="0.25"></line></g></g></g><g><g><line x1="0" y1="356" x2="290" y2="356" fill="rgb(0, 0, 0)" stroke="rgb(153, 153, 153)" stroke-width="1.5px"></line></g></g><g><g><line x1="22.30769230769231" y1="0" x2="22.30769230769231" y2="178" fill="rgb(0, 0, 0)" stroke="rgb(153, 153, 153)" stroke-width="1.5px"></line></g></g><g><g><g><g><g><path stroke="rgb(255, 112, 67)" stroke-width="2px" d="M26.323076923076922,-8.392830650008571L26.99230769230769,0.6375860749067153L27.661538461538463,9.252656379240133L28.33076923076923,14.630052079642851L29,17.65461588239302L29.66923076923077,21.244085152186663L30.338461538461537,22.54507019672728L31.00769230769231,25.483196892073273L31.676923076923075,26.514237482647964L32.34615384615385,28.412616556373653L33.01538461538462,29.630518054349228L33.684615384615384,31.69549900657541L34.353846153846156,32.903659950678694L35.02307692307692,34.70098665910521L35.69230769230769,36.075669759240384L36.36153846153846,36.29985511691118L37.03076923076923,38.443030683114706L37.7,38.02304755996537L38.369230769230775,40.199001144803944L39.03846153846154,41.71670942137748L39.707692307692305,44.0484092852298L40.37692307692308,44.42646596592509L41.04615384615384,45.41269663740978L41.715384615384615,46.8144861207141L42.38461538461539,49.36301375730242L43.05384615384615,52.16371615482432L43.723076923076924,53.5848739970044L44.392307692307696,56.500306500776205L45.061538461538454,57.61035525879521L45.730769230769226,59.041409330248165L46.4,60.54887938704621L47.06923076923077,62.4498477435887L47.738461538461536,64.80984361506128L48.40769230769231,67.34404487142609L49.07692307692308,69.52613856740098L49.746153846153845,70.89842256845556L50.41538461538462,71.50091657157499L51.08461538461539,71.71367826600702L51.75384615384615,72.9505307376733L52.42307692307692,72.81951048971494L53.09230769230769,75.42104284177785L53.761538461538464,76.8174291040781L54.43076923076923,78.67536185768131L55.1,79.49674128114644L55.769230769230774,81.58773143794173L56.43846153846154,83.2017740285141L57.10769230769231,84.79104664909904L57.776923076923076,86.4558569662407L58.44615384615384,87.4582589510667L59.11538461538461,88.05678791729824L59.784615384615385,88.79082781629707L60.45384615384615,90.53330287603063L61.12307692307692,91.63169081171877L61.792307692307695,92.92849322984274L62.46153846153847,93.79561632703869L63.13076923076923,94.66685098044091L63.8,94.52210384387978L64.46923076923078,94.67469173273301L65.13846153846154,95.73592474355154L65.8076923076923,95.60468978129802L66.47692307692309,96.01101528140359L67.14615384615384,94.3001042622938L67.81538461538462,95.17346736965928L68.48461538461538,95.16271477712866L69.15384615384616,95.83167300486768L69.82307692307693,94.62330444175524L70.49230769230769,95.92492006332785L71.16153846153847,96.95732910301953L71.83076923076923,98.27075162847838L72.5,99.79206709986263L73.16923076923077,100.98191759078239L73.83846153846154,103.31755979180124L74.50769230769231,104.12019624834463L75.17692307692307,105.23920072630168L75.84615384615385,106.04163843369226L76.51538461538462,106.62003438060921L77.18461538461538,107.580170686688L77.85384615384616,108.48441341326063L78.52307692307691,109.20722273803341L79.19230769230768,109.58288263370547L79.86153846153846,110.31391169217532L80.53076923076922,110.2235906642581L81.2,111.10437305700212L81.86923076923077,111.41687010088421L82.53846153846153,111.99342947087663L83.20769230769231,112.27576391692811L83.87692307692308,112.94697258152078L84.54615384615384,113.8095124029435L85.21538461538462,114.92721109370297L85.88461538461539,115.38962133395616L86.55384615384615,115.81108679573502L87.22307692307693,116.2214072756018L87.8923076923077,116.48307358628125L88.56153846153846,117.44298729277351L89.23076923076924,117.52623388024853L89.9,117.74401198206621L90.56923076923076,118.88609597775968L91.23846153846154,119.61418474730033L91.9076923076923,120.38370309216816L92.57692307692307,120.99913580251226L93.24615384615385,121.62155526962042L93.91538461538461,122.06450802139136L94.58461538461538,122.57663426297586L95.25384615384615,122.45327044426011L95.92307692307692,122.68646167654954L96.5923076923077,123.12113731069861L97.26153846153846,122.65880561979048L97.93076923076923,123.1344656533684L98.60000000000001,123.14289100090775L99.26923076923077,123.83394864405595L99.93846153846154,123.87567512515425L100.60769230769232,124.0583559214467L101.27692307692308,123.83773622946305L101.94615384615385,123.54025032939333L102.61538461538463,124.33990413440357L103.28461538461538,124.23570483687045L103.95384615384614,124.16936013424578L104.62307692307692,124.45593372445481L105.29230769230769,124.92469091094243L105.96153846153845,125.30835594196476L106.63076923076923,125.71458611563459L107.3,125.44172876085211L107.96923076923076,126.03268040090688L108.63846153846154,126.15440921507212L109.3076923076923,126.70957812249488L109.97692307692307,127.127043446712L110.64615384615385,126.84770145729586L111.31538461538462,126.35805401036383L111.9846153846154,126.87879818244984L112.65384615384616,127.37122922346188L113.32307692307693,127.9556318381407L113.9923076923077,128.56084409244062L114.66153846153847,128.64337935314234L115.33076923076922,129.41951565238563L116,128.82304270441966L116.66923076923077,129.19163073061617L117.33846153846153,129.11023660012646L118.00769230769231,129.26893007992177L118.67692307692307,129.61787185546174L119.34615384615384,129.66339787727443L120.01538461538462,130.00254032345126L120.68461538461538,130.43850581909788L121.35384615384615,130.85654551823282L122.02307692307693,131.3002250031326L122.6923076923077,132.23611610810784L123.36153846153846,132.20969071860276L124.03076923076924,132.599464621727L124.7,132.99390872976906L125.36923076923077,133.12420354813705L126.03846153846155,132.92813337562706L126.7076923076923,132.71198112333087L127.37692307692309,133.30817308629778L128.04615384615386,133.19436438576847L128.7153846153846,133.2436621224008L129.3846153846154,133.10537289193007L130.05384615384617,132.08810336026653L130.72307692307692,131.09685886945854L131.3923076923077,131.66778668126713L132.06153846153848,131.89041403349987L132.73076923076923,131.9090028383671L133.4,132.4068446927935L134.06923076923076,132.6757259088293L134.73846153846154,132.88059466055907L135.40769230769232,133.7311118554717L136.07692307692307,134.12438242836006L136.74615384615385,133.9544063057031L137.41538461538462,134.55526266634286L138.08461538461538,134.31221414887796L138.75384615384615,134.41894130942225L139.42307692307693,134.6376876548482L140.09230769230768,134.3374131774901L140.76153846153846,134.7167351345485L141.43076923076924,134.17792282172303L142.1,134.50216783352315L142.76923076923077,135.11092975895178L143.43846153846155,135.66858235759545L144.1076923076923,136.05735185799804L144.77692307692308,136.40772120391017L145.44615384615383,136.76482908600713L146.1153846153846,137.0019766582829L146.7846153846154,137.40539216494588L147.45384615384614,137.44185047908906L148.12307692307692,137.7109326005502L148.7923076923077,137.83084872116453L149.46153846153845,138.02701307452273L150.13076923076923,138.24229384663963L150.8,138.7133469229469L151.4692307692308,138.6858645651722L152.13846153846154,138.89655130814083L152.80769230769232,139.19810424340773L153.4769230769231,139.16976323845458L154.14615384615385,139.26247255014198L154.81538461538463,138.59805436138402L155.4846153846154,139.02126946239792L156.15384615384616,139.2978852058133L156.82307692307694,138.95715773888512L157.49230769230772,139.5282331063302L158.16153846153844,139.56725249943176L158.83076923076922,139.7150900657398L159.5,140.07515007826225L160.16923076923075,139.89067974829197L160.83846153846153,139.81455192585236L161.5076923076923,140.09817541345956L162.17692307692306,140.37252566704817L162.84615384615384,140.49063076006507L163.51538461538462,140.71813528858573L164.18461538461537,140.4527208236234L164.85384615384615,140.81559026801847L165.52307692307693,140.7992399911605L166.19230769230768,141.21343766467243L166.86153846153846,141.16186886982666L167.53076923076924,141.0751803700188L168.2,141.15198417144708L168.86923076923077,141.32323930047565L169.53846153846155,141.67886552310225L170.2076923076923,142.04632510202865L170.87692307692308,142.09292745664362L171.54615384615386,142.25875177427915L172.2153846153846,142.33502401378627L172.8846153846154,142.41371963898465L173.55384615384617,142.30104380867292L174.22307692307692,142.32702936476647L174.8923076923077,142.41827818268908L175.56153846153848,142.71436488934978L176.23076923076923,142.98109628278524L176.9,142.63305753977207L177.56923076923078,142.33980241258934L178.23846153846154,142.40091649529666L178.90769230769232,142.8368162410365L179.5769230769231,143.05562334108458L180.24615384615382,142.9570681913912L180.9153846153846,142.73825314560185L181.5846153846154,142.4876685316482L182.25384615384618,142.4881649651532L182.9230769230769,142.31140560140634L183.59230769230768,142.54281344683554L184.26153846153846,142.94127619269443L184.93076923076922,143.18195330038773L185.6,143.01577759478886L186.26923076923077,143.01517080085117L186.93846153846152,143.17539403527957L187.6076923076923,143.17477572441754L188.27692307692308,143.34810460430114L188.94615384615383,142.8389202034444L189.6153846153846,142.8665575019766L190.2846153846154,143.18328009241316L190.95384615384614,143.62044533341555L191.62307692307692,143.51179043070795L192.2923076923077,143.45611125929284L192.96153846153845,143.3613357890501L193.63076923076923,143.40315418203465L194.3,143.38263796888336L194.96923076923076,143.77569331599793L195.63846153846154,144.0021032895391L196.30769230769232,143.9834353847749L196.97692307692307,144.25815323797215L197.64615384615385,144.36848158986447L198.31538461538463,144.5197140522531L198.98461538461538,145.0256869722047L199.65384615384616,145.38379571807218L200.32307692307694,145.43202286676996L200.9923076923077,145.2896735691017L201.66153846153847,145.28655319880693L202.33076923076925,145.37323222242543L203,145.6743404700655L203.66923076923078,146.04878152813308L204.33846153846156,146.19412199169534L205.00769230769228,145.7994813466014L205.67692307692306,145.84714435402205L206.34615384615384,145.81369517496748L207.0153846153846,146.08731522577585L207.68461538461537,146.3149224504883L208.35384615384615,146.2375816203852L209.0230769230769,146.2925693172832L209.69230769230768,146.56451525030917L210.36153846153846,146.55646512484915L211.0307692307692,146.32044515224783L211.7,146.38394130263885L212.36923076923077,146.57414614687195L213.03846153846155,146.5841306155049L213.7076923076923,146.6703055550397L214.37692307692308,146.73179589541533L215.04615384615386,146.95766782859036L215.7153846153846,147.12474260389249L216.3846153846154,147.2358441822628L217.05384615384617,146.82447778553498L217.72307692307692,147.1362769592713L218.3923076923077,147.5761390732407L219.06153846153848,147.71229568759676L219.73076923076923,147.71022170170195L220.4,148.03039335969845L221.06923076923078,148.2809520972264L221.73846153846154,148.30474137009801L222.40769230769232,148.1340660338101L223.0769230769231,148.17421649270898L223.74615384615385,148.2842777526132L224.41538461538462,148.3242629236762L225.0846153846154,148.11049276193685L225.75384615384615,148.16677215523612L226.42307692307693,148.19528873327295L227.0923076923077,148.2731781668572L227.76153846153846,148.42467646866362L228.43076923076924,148.47851625920924L229.10000000000002,148.68351656501446L229.76923076923075,148.79756882504924L230.43846153846152,148.9389038777661L231.1076923076923,149.23688579047257L231.77692307692305,149.33931580384626L232.44615384615383,149.32617257489133L233.1153846153846,149.55931472386277L233.78461538461536,149.45412800871543L234.45384615384614,149.46558703811232L235.12307692307692,149.74045502641556L235.79230769230767,149.5900784595071L236.46153846153845,149.51834439151375L237.13076923076923,149.24814288233122L237.79999999999998,149.15522880801203L238.46923076923076,149.45200289556567L239.13846153846154,149.25266264771267L239.8076923076923,149.03012720085093L240.47692307692307,148.8387613045058L241.14615384615385,149.10230463426598L241.8153846153846,149.4393513779717L242.48461538461538,149.14208762664197L243.15384615384616,149.43499673695524L243.82307692307694,149.72443213437697L244.4923076923077,149.85184483089202L245.16153846153847,150.10488945061857L245.83076923076925,150.2367606933475L246.5,149.8337819985552L247.16923076923078,149.77213021190977L247.83846153846156,150.02825530677913L248.5076923076923,150.21554920593164L249.1769230769231,150.08328358443137L249.84615384615387,149.65432899329662L250.51538461538462,149.68087550944912L251.1846153846154,149.9130549619737L251.85384615384618,150.2574707674403L252.52307692307693,150.42786833489453L253.1923076923077,150.57158721526508L253.8615384615385,150.66218688048284L254.5307692307692,150.51965464063233L255.2,150.0949516588911L255.86923076923077,150.15231130023915L256.53846153846155,150.29511314597465L257.2076923076923,150.316189642549L257.8769230769231,150.6272480330338L258.54615384615386,151.01681834971393L259.2153846153846,151.04088036394074L259.8846153846154,151.17229695954825L260.55384615384617,151.12798093858703L261.2230769230769,151.29672162793085L261.8923076923077,151.2425015300897L262.5615384615385,151.0172797876827L263.2307692307692,151.06689193741542L263.90000000000003,151.39649765363308L264.5692307692308,151.53069008591356L265.23846153846154,151.23945931250734L265.90769230769234,150.97440416077373L266.57692307692304,150.89640032591845L267.24615384615385,150.9257232759276L267.9153846153846,150.87384615292092L268.58461538461535,150.8597103711959L269.25384615384615,151.05212713621034L269.9230769230769,151.1953263203818L270.59230769230766,151.31581529567418L271.26153846153846,151.41396410551866L271.9307692307692,151.63147155548785L272.59999999999997,151.50313508308653L273.2692307692308,151.62636750682893L273.9384615384615,151.92577803380115L274.60769230769233,151.92971006911424L275.2769230769231,151.94593630826L275.94615384615383,152.0295942726133L276.61538461538464,152.33179456473445L277.2846153846154,152.53400580242572L277.95384615384614,152.5691578556416L278.62307692307695,152.308042446268L279.2923076923077,152.55080065696978" style="fill: none;" fill="none"></path></g></g></g></g><g opacity="0.2"><g><g><g><path stroke="rgb(255, 112, 67)" stroke-width="2px" d="M24.984615384615385,-14.925981309678802L25.653846153846157,1.3227988349066928L26.323076923076922,11.43067042032877L26.99230769230769,13.804020351833763L27.661538461538463,21.958211686876087L28.33076923076923,22.614857991536464L29,22.164029015435105L29.66923076923077,26.60875532362196L30.338461538461537,24.492299821641712L31.00769230769231,29.884630839029942L31.676923076923075,28.059586418999558L32.34615384615385,31.258846282958984L33.01538461538462,31.456854926215286L33.684615384615384,34.79244613647461L34.353846153846156,34.71571731567383L35.02307692307692,37.396812438964844L35.69230769230769,38.13761901855469L36.36153846153846,36.636125776502816L37.03076923076923,41.65775171915689L37.7,37.3930778503418L38.369230769230775,43.462916056315095L39.03846153846154,43.99326536390516L39.707692307692305,47.54595311482748L40.37692307692308,44.993550406561965L41.04615384615384,46.89204173617893L41.715384615384615,48.91716957092285L42.38461538461539,53.18580436706543L43.05384615384615,56.364769193861214L43.723076923076924,55.71661059061685L44.392307692307696,60.87345504760742L45.061538461538454,59.27542834811741L45.730769230769226,61.18799040052625L46.4,62.810084448920364L47.06923076923077,65.30130026075575L47.738461538461536,68.34983740912544L48.40769230769231,71.14534674750435L49.07692307692308,72.79927910698784L49.746153846153845,72.95684856838649L50.41538461538462,72.40465757581923L51.08461538461539,72.03282080756294L51.75384615384615,74.80580944485133L52.42307692307692,72.62298011779785L53.09230769230769,79.3233413696289L53.761538461538464,78.91200849745009L54.43076923076923,81.46226098802354L55.1,80.72881041632759L55.769230769230774,84.72421667310927L56.43846153846154,85.62283791436089L57.10769230769231,87.17495557996962L57.776923076923076,88.95307244194878L58.44615384615384,88.96186192830405L59.11538461538461,88.95458136664497L59.784615384615385,89.89188766479492L60.45384615384615,93.14701546563042L61.12307692307692,93.27927271525067L61.792307692307695,94.87369685702855L62.46153846153847,95.09630097283257L63.13076923076923,95.97370296054417L63.8,94.30498313903809L64.46923076923078,94.90357356601292L65.13846153846154,97.32777425977919L65.8076923076923,95.40783733791774L66.47692307692309,96.62050353156197L67.14615384615384,91.73373773362901L67.81538461538462,96.48351203070747L68.48461538461538,95.14658588833278L69.15384615384616,96.83511034647626L69.82307692307693,92.81075159708661L70.49230769230769,97.87734349568683L71.16153846153847,98.50594266255695L71.83076923076923,100.24088541666669L72.5,102.07404030693901L73.16923076923077,102.766693327162L73.83846153846154,106.82102309332954L74.50769230769231,105.32415093315971L75.17692307692307,106.9177074432373L75.84615384615385,107.24529499477809L76.51538461538462,107.48762830098468L77.18461538461538,109.0203751458062L77.85384615384616,109.84077750311958L78.52307692307691,110.29143672519261L79.19230769230768,110.14637247721356L79.86153846153846,111.41045527988011L80.53076923076922,110.08810912238228L81.2,112.42554664611816L81.86923076923077,111.88561566670734L82.53846153846153,112.85826852586534L83.20769230769231,112.69926558600532L83.87692307692308,113.95378557840985L84.54615384615384,115.10332213507759L85.21538461538462,116.6037591298421L85.88461538461539,116.08323669433594L86.55384615384615,116.44328498840332L87.22307692307693,116.83688799540204L87.8923076923077,116.87557305230034L88.56153846153846,118.88285785251195L89.23076923076924,117.65110376146104L89.9,118.07067913479274L90.56923076923076,120.59922197129991L91.23846153846154,120.70631790161133L91.9076923076923,121.53798060946995L92.57692307692307,121.92228486802843L93.24615384615385,122.55518447028267L93.91538461538461,122.72893714904785L94.58461538461538,123.34482362535265L95.25384615384615,122.26822471618652L95.92307692307692,123.0362485249837L96.5923076923077,123.77315076192218L97.26153846153846,121.96530808342827L97.93076923076923,123.84795570373535L98.60000000000001,123.1555290222168L99.26923076923077,124.87053510877821L99.93846153846154,123.93826484680176L100.60769230769232,124.33237711588544L101.27692307692308,123.50680669148761L101.94615384615385,123.09402147928876L102.61538461538463,125.53938484191895L103.28461538461538,124.07940589057075L103.95384615384614,124.0698430803087L104.62307692307692,124.88579410976833L105.29230769230769,125.62782669067383L105.96153846153845,125.88385348849827L106.63076923076923,126.32393137613934L107.3,125.0324427286784L107.96923076923076,126.91910786098903L108.63846153846154,126.33700243632L109.3076923076923,127.54233148362901L109.97692307692307,127.75324143303764L110.64615384615385,126.42868847317165L111.31538461538462,125.62358283996582L111.9846153846154,127.65991444057887L112.65384615384616,128.10987578497995L113.32307692307693,128.83223576015897L113.9923076923077,129.4686624738905L114.66153846153847,128.76718224419486L115.33076923076922,130.58372010125052L116,127.9283332824707L116.66923076923077,129.744512769911L117.33846153846153,128.98814540439182L118.00769230769231,129.50697029961478L118.67692307692307,130.1412845187717L119.34615384615384,129.73168690999347L120.01538461538462,130.5112539927165L120.68461538461538,131.09245406256784L121.35384615384615,131.48360506693524L122.02307692307693,131.9657442304823L122.6923076923077,133.63995276557077L123.36153846153846,132.17005263434518L124.03076923076924,133.1841254764133L124.7,133.58557489183215L125.36923076923077,133.319645775689L126.03846153846155,132.634028116862L126.7076923076923,132.3877527448866L127.37692307692309,134.20246103074817L128.04615384615386,133.0236513349745L128.7153846153846,133.31760872734915L129.3846153846154,132.89793904622394L130.05384615384617,130.56219906277127L130.72307692307692,129.60999213324655L131.3923076923077,132.52417839898L132.06153846153848,132.22435506184894L132.73076923076923,131.93688604566785L133.4,133.15360747443307L134.06923076923076,133.07904773288303L134.73846153846154,133.18789778815378L135.40769230769232,135.0068876478407L136.07692307692307,134.7142882876926L136.74615384615385,133.69944212171765L137.41538461538462,135.45654720730252L138.08461538461538,133.94764137268066L138.75384615384615,134.57903205023874L139.42307692307693,134.96580717298718L140.09230769230768,133.8870014614529L140.76153846153846,135.2857180701362L141.43076923076924,133.36970435248483L142.1,134.98853535122342L142.76923076923077,136.02407264709473L143.43846153846155,136.505061255561L144.1076923076923,136.6405061086019L144.77692307692308,136.93327522277832L145.44615384615383,137.30049090915256L146.1153846153846,137.3576980166965L146.7846153846154,138.0105154249403L147.45384615384614,137.49653795030383L148.12307692307692,138.11455578274197L148.7923076923077,138.01072290208606L149.46153846153845,138.32125960456003L150.13076923076923,138.56521500481497L150.8,139.41992653740775L151.4692307692308,138.64464102851022L152.13846153846154,139.21258142259387L152.80769230769232,139.65043364630807L153.4769230769231,139.12725173102487L154.14615384615385,139.40153651767307L154.81538461538463,137.60142707824707L155.4846153846154,139.65609211391873L156.15384615384616,139.7128088209364L156.82307692307694,138.44606653849283L157.49230769230772,140.38484615749783L158.16153846153844,139.6257815890842L158.83076923076922,139.9368464152018L159.5,140.6152400970459L160.16923076923075,139.61397425333658L160.83846153846153,139.7003601921929L161.5076923076923,140.52361064487033L162.17692307692306,140.78405104743112L162.84615384615384,140.66778839959036L163.51538461538462,141.05939208136667L164.18461538461537,140.05459912618002L164.85384615384615,141.359894434611L165.52307692307693,140.7747145758735L166.19230769230768,141.8347341749403L166.86153846153846,141.08451567755807L167.53076923076924,140.9451476203071L168.2,141.2671898735894L168.86923076923077,141.58012199401855L169.53846153846155,142.2123048570421L170.2076923076923,142.5975144704183L170.87692307692308,142.16283098856607L171.54615384615386,142.50748825073242L172.2153846153846,142.44943237304688L172.8846153846154,142.53176307678223L173.55384615384617,142.1320300632053L174.22307692307692,142.36600769890677L174.8923076923077,142.55515140957303L175.56153846153848,143.15849494934082L176.23076923076923,143.38119337293836L176.9,142.1109994252523L177.56923076923078,141.8999197218153L178.23846153846154,142.49258761935764L178.90769230769232,143.49066585964627L179.5769230769231,143.3838339911567L180.24615384615382,142.8092354668511L180.9153846153846,142.41003057691785L181.5846153846154,142.11179161071777L182.25384615384618,142.48890961541068L182.9230769230769,142.04626655578613L183.59230769230768,142.88992521497937L184.26153846153846,143.53897031148276L184.93076923076922,143.5429689619276L185.6,142.7665140363905L186.26923076923077,143.01426060994467L186.93846153846152,143.4157288869222L187.6076923076923,143.17384825812448L188.27692307692308,143.6080979241265L188.94615384615383,142.0751436021593L189.6153846153846,142.90801344977487L190.2846153846154,143.65836397806802L190.95384615384614,144.27619319491916L191.62307692307692,143.3488080766466L192.2923076923077,143.37259250217014L192.96153846153845,143.219172583686L193.63076923076923,143.4658817715115L194.3,143.35186364915637L194.96923076923076,144.36527633666992L195.63846153846154,144.3417182498508L196.30769230769232,143.95543352762857L196.97692307692307,144.67023001776803L197.64615384615385,144.5339741177029L198.31538461538463,144.74656274583606L198.98461538461538,145.78464635213217L199.65384615384616,145.92095883687338L200.32307692307694,145.50436358981662L200.9923076923077,145.07614962259927L201.66153846153847,145.28187264336478L202.33076923076925,145.50325075785318L203,146.1260028415256L203.66923076923078,146.61044311523438L204.33846153846156,146.41213268703885L205.00769230769228,145.20752037896048L205.67692307692306,145.91863886515299L206.34615384615384,145.76352140638562L207.0153846153846,146.4977453019884L207.68461538461537,146.65633328755698L208.35384615384615,146.1215703752306L209.0230769230769,146.37505086263022L209.69230769230768,146.9724341498481L210.36153846153846,146.54438993665906L211.0307692307692,145.96641519334582L211.7,146.47918552822537L212.36923076923077,146.85945341322156L213.03846153846155,146.59910731845432L213.7076923076923,146.79956796434192L214.37692307692308,146.82403140597873L215.04615384615386,147.29647572835287L215.7153846153846,147.3753547668457L216.3846153846154,147.40249654981824L217.05384615384617,146.20742819044324L217.72307692307692,147.60397571987576L218.3923076923077,148.23593224419486L219.06153846153848,147.91653060913086L219.73076923076923,147.7071107228597L220.4,148.51065084669324L221.06923076923078,148.65679020351834L221.73846153846154,148.3404252794054L222.40769230769232,147.87805302937826L223.0769230769231,148.2344421810574L223.74615384615385,148.4493696424696L224.41538461538462,148.38424068027072L225.0846153846154,147.7898375193278L225.75384615384615,148.25119124518503L226.42307692307693,148.23806360032825L227.0923076923077,148.3900123172336L227.76153846153846,148.65192392137317L228.43076923076924,148.55927594502768L229.10000000000002,148.99101702372232L229.76923076923075,148.96864721510144L230.43846153846152,149.15090645684134L231.1076923076923,149.68385865953235L231.77692307692305,149.49296082390677L232.44615384615383,149.30645773145886L233.1153846153846,149.90902794731986L233.78461538461536,149.29634793599448L234.45384615384614,149.48277558220755L235.12307692307692,150.15275700887045L235.79230769230767,149.3645136091444L236.46153846153845,149.41074328952365L237.13076923076923,148.8428406185574L237.79999999999998,149.0158576965332L238.46923076923076,149.89716402689615L239.13846153846154,148.95365227593314L239.8076923076923,148.69632403055826L240.47692307692307,148.55171245998807L241.14615384615385,149.49761962890625L241.8153846153846,149.94492149353027L242.48461538461538,148.69619199964734L243.15384615384616,149.87436040242514L243.82307692307694,150.15858523050943L244.4923076923077,150.04296387566458L245.16153846153847,150.48445638020834L245.83076923076925,150.4345675574409L246.5,149.22931395636667L247.16923076923078,149.67965253194174L247.83846153846156,150.41244294908313L248.5076923076923,150.49649005466037L249.1769230769231,149.884885152181L249.84615384615387,149.0108971065945L250.51538461538462,149.72069528367786L251.1846153846154,150.26132414076062L251.85384615384618,150.77409447564017L252.52307692307693,150.68346468607584L253.1923076923077,150.78716553582083L253.8615384615385,150.79808637830945L254.5307692307692,150.30585628085666L255.2,149.4578971862793L255.86923076923077,150.23835076226126L256.53846153846155,150.5093159145779L257.2076923076923,150.3478043874105L257.8769230769231,151.09383561876086L258.54615384615386,151.60117382473416L259.2153846153846,151.07697338528104L259.8846153846154,151.3694218529595L260.55384615384617,151.06150690714517L261.2230769230769,151.54983266194662L261.8923076923077,151.1611713833279L262.5615384615385,150.67944717407227L263.2307692307692,151.14131016201443L263.90000000000003,151.8909062279595L264.5692307692308,151.73197873433432L265.23846153846154,150.80261315239798L265.90769230769234,150.5768214331733L266.57692307692304,150.77939457363553L267.24615384615385,150.96970770094129L267.9153846153846,150.79603046841092L268.58461538461535,150.8385066986084L269.25384615384615,151.3407522837321L269.9230769230769,151.410125096639L270.59230769230766,151.49654875861276L271.26153846153846,151.56118732028537L271.9307692307692,151.95773273044162L272.59999999999997,151.3106303744846L273.2692307692308,151.8112161424425L273.9384615384615,152.37489382425943L274.60769230769233,151.93560812208386L275.2769230769231,151.97027566697864L275.94615384615383,152.15508121914334L276.61538461538464,152.78509500291614L277.2846153846154,152.83732265896268L277.95384615384614,152.62188593546549L278.62307692307695,151.91636933220755L279.2923076923077,152.91493797302246" style="fill: none;" fill="none"></path></g></g></g></g></g></g><g transform="translate(40, 178)" clip-path="url(#clip_1)"><clipPath id="clip_1"><rect width="290" height="22"></rect></clipPath><g><g><line x1="0" y1="0" x2="0" y2="5" style="visibility: inherit;" fill="rgb(0, 0, 0)" stroke="rgb(204, 204, 204)" stroke-width="1px"></line><line x1="22.30769230769231" y1="0" x2="22.30769230769231" y2="5" style="visibility: inherit;" fill="rgb(0, 0, 0)" stroke="rgb(204, 204, 204)" stroke-width="1px"></line><line x1="44.61538461538462" y1="0" x2="44.61538461538462" y2="5" style="visibility: inherit;" fill="rgb(0, 0, 0)" stroke="rgb(204, 204, 204)" stroke-width="1px"></line><line x1="66.92307692307692" y1="0" x2="66.92307692307692" y2="5" style="visibility: inherit;" fill="rgb(0, 0, 0)" stroke="rgb(204, 204, 204)" stroke-width="1px"></line><line x1="89.23076923076924" y1="0" x2="89.23076923076924" y2="5" style="visibility: inherit;" fill="rgb(0, 0, 0)" stroke="rgb(204, 204, 204)" stroke-width="1px"></line><line x1="111.53846153846155" y1="0" x2="111.53846153846155" y2="5" style="visibility: inherit;" fill="rgb(0, 0, 0)" stroke="rgb(204, 204, 204)" stroke-width="1px"></line><line x1="133.84615384615384" y1="0" x2="133.84615384615384" y2="5" style="visibility: inherit;" fill="rgb(0, 0, 0)" stroke="rgb(204, 204, 204)" stroke-width="1px"></line><line x1="156.15384615384616" y1="0" x2="156.15384615384616" y2="5" style="visibility: inherit;" fill="rgb(0, 0, 0)" stroke="rgb(204, 204, 204)" stroke-width="1px"></line><line x1="178.46153846153848" y1="0" x2="178.46153846153848" y2="5" style="visibility: inherit;" fill="rgb(0, 0, 0)" stroke="rgb(204, 204, 204)" stroke-width="1px"></line><line x1="200.76923076923077" y1="0" x2="200.76923076923077" y2="5" style="visibility: inherit;" fill="rgb(0, 0, 0)" stroke="rgb(204, 204, 204)" stroke-width="1px"></line><line x1="223.0769230769231" y1="0" x2="223.0769230769231" y2="5" style="visibility: inherit;" fill="rgb(0, 0, 0)" stroke="rgb(204, 204, 204)" stroke-width="1px"></line><line x1="245.3846153846154" y1="0" x2="245.3846153846154" y2="5" style="visibility: inherit;" fill="rgb(0, 0, 0)" stroke="rgb(204, 204, 204)" stroke-width="1px"></line><line x1="267.6923076923077" y1="0" x2="267.6923076923077" y2="5" style="visibility: inherit;" fill="rgb(0, 0, 0)" stroke="rgb(204, 204, 204)" stroke-width="1px"></line><line x1="290" y1="0" x2="290" y2="5" style="visibility: inherit;" fill="rgb(0, 0, 0)" stroke="rgb(204, 204, 204)" stroke-width="1px"></line></g><g transform="translate(0, 8)"><text x="0" y="0" dx="0em" dy="0.95em" style="text-anchor: middle; visibility: hidden; font-family: Roboto, sans-serif; font-size: 12px; font-weight: 200;" fill="rgb(50, 49, 63)" stroke="none" stroke-width="1px">-10k</text><text x="22.30769230769231" y="0" dx="0em" dy="0.95em" style="text-anchor: middle; visibility: inherit; font-family: Roboto, sans-serif; font-size: 12px; font-weight: 200;" fill="rgb(50, 49, 63)" stroke="none" stroke-width="1px">0</text><text x="44.61538461538462" y="0" dx="0em" dy="0.95em" style="text-anchor: middle; visibility: hidden; font-family: Roboto, sans-serif; font-size: 12px; font-weight: 200;" fill="rgb(50, 49, 63)" stroke="none" stroke-width="1px">10k</text><text x="66.92307692307692" y="0" dx="0em" dy="0.95em" style="text-anchor: middle; visibility: inherit; font-family: Roboto, sans-serif; font-size: 12px; font-weight: 200;" fill="rgb(50, 49, 63)" stroke="none" stroke-width="1px">20k</text><text x="89.23076923076924" y="0" dx="0em" dy="0.95em" style="text-anchor: middle; visibility: hidden; font-family: Roboto, sans-serif; font-size: 12px; font-weight: 200;" fill="rgb(50, 49, 63)" stroke="none" stroke-width="1px">30k</text><text x="111.53846153846155" y="0" dx="0em" dy="0.95em" style="text-anchor: middle; visibility: inherit; font-family: Roboto, sans-serif; font-size: 12px; font-weight: 200;" fill="rgb(50, 49, 63)" stroke="none" stroke-width="1px">40k</text><text x="133.84615384615384" y="0" dx="0em" dy="0.95em" style="text-anchor: middle; visibility: hidden; font-family: Roboto, sans-serif; font-size: 12px; font-weight: 200;" fill="rgb(50, 49, 63)" stroke="none" stroke-width="1px">50k</text><text x="156.15384615384616" y="0" dx="0em" dy="0.95em" style="text-anchor: middle; visibility: inherit; font-family: Roboto, sans-serif; font-size: 12px; font-weight: 200;" fill="rgb(50, 49, 63)" stroke="none" stroke-width="1px">60k</text><text x="178.46153846153848" y="0" dx="0em" dy="0.95em" style="text-anchor: middle; visibility: hidden; font-family: Roboto, sans-serif; font-size: 12px; font-weight: 200;" fill="rgb(50, 49, 63)" stroke="none" stroke-width="1px">70k</text><text x="200.76923076923077" y="0" dx="0em" dy="0.95em" style="text-anchor: middle; visibility: inherit; font-family: Roboto, sans-serif; font-size: 12px; font-weight: 200;" fill="rgb(50, 49, 63)" stroke="none" stroke-width="1px">80k</text><text x="223.0769230769231" y="0" dx="0em" dy="0.95em" style="text-anchor: middle; visibility: hidden; font-family: Roboto, sans-serif; font-size: 12px; font-weight: 200;" fill="rgb(50, 49, 63)" stroke="none" stroke-width="1px">90k</text><text x="245.3846153846154" y="0" dx="0em" dy="0.95em" style="text-anchor: middle; visibility: inherit; font-family: Roboto, sans-serif; font-size: 12px; font-weight: 200;" fill="rgb(50, 49, 63)" stroke="none" stroke-width="1px">100k</text><text x="267.6923076923077" y="0" dx="0em" dy="0.95em" style="text-anchor: middle; visibility: hidden; font-family: Roboto, sans-serif; font-size: 12px; font-weight: 200;" fill="rgb(50, 49, 63)" stroke="none" stroke-width="1px">110k</text><text x="290" y="0" dx="0em" dy="0.95em" style="text-anchor: middle; visibility: hidden; font-family: Roboto, sans-serif; font-size: 12px; font-weight: 200;" fill="rgb(50, 49, 63)" stroke="none" stroke-width="1px">120k</text></g><line x1="0" y1="0" x2="290" y2="0" fill="rgb(0, 0, 0)" stroke="rgb(204, 204, 204)" stroke-width="1px"></line></g></g></g></g></svg>